<svg width="200" height="200" viewBox="0 0 200 200" fill="none" xmlns="http://www.w3.org/2000/svg">
<path fill-rule="evenodd" clip-rule="evenodd" d="M3.81072 127.437C4.84244 131.061 6.07342 134.601 7.49108 138.044L160.336 20.2463C157.358 17.9898 154.25 15.8962 151.024 13.9789L3.81072 127.437ZM15.2411 153.09C13.3371 150.057 11.5914 146.914 10.0157 143.674L165.137 24.1215C167.862 26.4633 170.46 28.9495 172.919 31.568L15.2411 153.09ZM18.5893 158.085C20.6573 160.978 22.8756 163.757 25.233 166.409L183.27 44.609C181.297 41.6488 179.171 38.7998 176.902 36.0734L18.5893 158.085ZM37.4405 178.019C34.6218 175.756 31.9284 173.344 29.3723 170.794L186.462 49.7246C188.274 52.8349 189.924 56.0519 191.399 59.3638L37.4405 178.019ZM42.4116 181.763C45.5008 183.943 48.719 185.952 52.0525 187.777L197.099 75.9897C196.185 72.2828 195.065 68.6572 193.751 65.126L42.4116 181.763ZM69.5787 195.289C65.6025 194.02 61.7343 192.51 57.9915 190.775L198.475 82.5045C199.188 86.5485 199.659 90.6764 199.871 94.8724L69.5787 195.289ZM76.8034 197.296C81.4931 198.41 86.3108 199.193 91.2304 199.621L198.58 116.886C199.385 112.152 199.858 107.305 199.972 102.369L76.8034 197.296ZM120.83 197.827C114.29 199.213 107.513 199.96 100.569 199.998L196.587 125.997C194.801 132.651 192.345 139.031 189.297 145.06L120.83 197.827ZM137.023 192.923C154.404 185.991 169.384 174.325 180.368 159.516L137.023 192.923ZM145.293 10.8212C141.693 8.98957 137.968 7.36942 134.134 5.97712L0.403403 109.044C0.769918 113.132 1.38255 117.15 2.22637 121.082L145.293 10.8212ZM113.453 0.897137C118.147 1.52834 122.738 2.48523 127.202 3.74434L0.015305 101.767C0.00511565 101.18 0 100.59 0 100C0 95.8577 0.251856 91.7743 0.741091 87.7641L113.453 0.897137ZM104.65 0.106204C103.109 0.0356583 101.559 0 100 0C95.2836 0 90.6434 0.326512 86.1009 0.958166L7.74364 61.3482C5.369 67.0094 3.50025 72.9352 2.19393 79.0693L104.65 0.106204ZM13.9879 48.9605C26.8895 27.2655 47.7659 10.8671 72.575 3.80743L13.9879 48.9605Z" fill="#F9C032"/>
</svg>
