<svg width="86" height="86" viewBox="0 0 86 86" fill="none" xmlns="http://www.w3.org/2000/svg">
<path d="M86 43C86 66.8 66.7 86 43 86C19.2 86 0 66.7 0 43C0 19.2 19.3 0 43 0C66.7 0 86 19.2 86 43Z" fill="url(#paint0_linear_2367_526)"/>
<path fill-rule="evenodd" clip-rule="evenodd" d="M36.0004 43.5V69.8C36.0004 70.2 36.3004 70.5 36.7004 70.5H46.5004C46.9004 70.5 47.2004 70.2 47.2004 69.8V43H54.3004C54.7004 43 55.0004 42.7 55.0004 42.4L55.7004 34.3C55.7004 33.9 55.4004 33.6 55.0004 33.6H47.1004V27.9C47.1004 26.6 48.2004 25.5 49.5004 25.5H55.0004C55.4004 25.5 55.7004 25.2 55.7004 24.8V16.7C55.7004 16.3 55.4004 16 55.0004 16H45.8004C40.4004 16 36.0004 20.4 36.0004 25.8V33.6H31.1004C30.7004 33.6 30.4004 33.9 30.4004 34.3V42.4C30.4004 42.8 30.7004 43.1 31.1004 43.1H36.0004V43.5Z" fill="white"/>
<defs>
<linearGradient id="paint0_linear_2367_526" x1="12.5739" y1="12.5891" x2="73.41" y2="73.4252" gradientUnits="userSpaceOnUse">
<stop offset="0.0261314" stop-color="#3E68DD"/>
<stop offset="0.9867" stop-color="#3C5A99"/>
</linearGradient>
</defs>
</svg>
