<svg width="167" height="246" viewBox="0 0 167 246" fill="none" xmlns="http://www.w3.org/2000/svg">
<g clip-path="url(#clip0_2344_1010)" filter="url(#filter0_d_2344_1010)">
<path d="M43.7577 237.997C65.6953 237.997 83.4997 220.227 83.4997 198.331V158.664H43.7577C21.8201 158.664 4.01562 176.435 4.01562 198.331C4.01562 220.227 21.8201 237.997 43.7577 237.997Z" fill="#0ACF83"/>
<path d="M4.01562 119.003C4.01562 97.1066 21.8201 79.3359 43.7577 79.3359H83.4997V158.669H43.7577C21.8201 158.669 4.01562 140.899 4.01562 119.003Z" fill="#A259FF"/>
<path d="M4.01562 39.6667C4.01562 17.7707 21.8201 0 43.7577 0H83.4997V79.3333H43.7577C21.8201 79.3333 4.01562 61.5627 4.01562 39.6667Z" fill="#F24E1E"/>
<path d="M83.5 0H123.242C145.18 0 162.984 17.7707 162.984 39.6667C162.984 61.5627 145.18 79.3333 123.242 79.3333H83.5V0Z" fill="#FF7262"/>
<path d="M162.984 119.003C162.984 140.899 145.18 158.669 123.242 158.669C101.304 158.669 83.5 140.899 83.5 119.003C83.5 97.1066 101.304 79.3359 123.242 79.3359C145.18 79.3359 162.984 97.1066 162.984 119.003Z" fill="#1ABCFE"/>
</g>
<defs>
<filter id="filter0_d_2344_1010" x="0" y="0" width="167" height="246" filterUnits="userSpaceOnUse" color-interpolation-filters="sRGB">
<feFlood flood-opacity="0" result="BackgroundImageFix"/>
<feColorMatrix in="SourceAlpha" type="matrix" values="0 0 0 0 0 0 0 0 0 0 0 0 0 0 0 0 0 0 127 0" result="hardAlpha"/>
<feOffset dy="4"/>
<feGaussianBlur stdDeviation="2"/>
<feComposite in2="hardAlpha" operator="out"/>
<feColorMatrix type="matrix" values="0 0 0 0 0 0 0 0 0 0 0 0 0 0 0 0 0 0 0.25 0"/>
<feBlend mode="normal" in2="BackgroundImageFix" result="effect1_dropShadow_2344_1010"/>
<feBlend mode="normal" in="SourceGraphic" in2="effect1_dropShadow_2344_1010" result="shape"/>
</filter>
<clipPath id="clip0_2344_1010">
<rect width="159" height="238" fill="white" transform="translate(4)"/>
</clipPath>
</defs>
</svg>
