<svg width="100" height="100" viewBox="0 0 100 100" fill="none" xmlns="http://www.w3.org/2000/svg">
<g clip-path="url(#clip0_2361_232)" filter="url(#filter0_d_2361_232)">
<path d="M36.005 92C43.7315 92 50.0022 85.728 50.0022 78V64H36.005C28.2786 64 22.0078 70.272 22.0078 78C22.0078 85.728 28.2786 92 36.005 92Z" fill="#0ACF83"/>
<path d="M22.0078 50C22.0078 42.272 28.2786 36 36.005 36H50.0022V64H36.005C28.2786 64 22.0078 57.728 22.0078 50Z" fill="#A259FF"/>
<path d="M22.0078 22C22.0078 14.272 28.2786 8 36.005 8H50.0022V36H36.005C28.2786 36 22.0078 29.728 22.0078 22Z" fill="#F24E1E"/>
<path d="M50 8H63.9972C71.7237 8 77.9944 14.272 77.9944 22C77.9944 29.728 71.7237 36 63.9972 36H50V8Z" fill="#FF7262"/>
<path d="M77.9944 50C77.9944 57.728 71.7237 64 63.9972 64C56.2707 64 50 57.728 50 50C50 42.272 56.2707 36 63.9972 36C71.7237 36 77.9944 42.272 77.9944 50Z" fill="#1ABCFE"/>
</g>
<defs>
<filter id="filter0_d_2361_232" x="18" y="8" width="64" height="92" filterUnits="userSpaceOnUse" color-interpolation-filters="sRGB">
<feFlood flood-opacity="0" result="BackgroundImageFix"/>
<feColorMatrix in="SourceAlpha" type="matrix" values="0 0 0 0 0 0 0 0 0 0 0 0 0 0 0 0 0 0 127 0" result="hardAlpha"/>
<feOffset dy="4"/>
<feGaussianBlur stdDeviation="2"/>
<feComposite in2="hardAlpha" operator="out"/>
<feColorMatrix type="matrix" values="0 0 0 0 0 0 0 0 0 0 0 0 0 0 0 0 0 0 0.25 0"/>
<feBlend mode="normal" in2="BackgroundImageFix" result="effect1_dropShadow_2361_232"/>
<feBlend mode="normal" in="SourceGraphic" in2="effect1_dropShadow_2361_232" result="shape"/>
</filter>
<clipPath id="clip0_2361_232">
<rect width="56" height="84" fill="white" transform="translate(22 8)"/>
</clipPath>
</defs>
</svg>
