<svg width="186" height="210" viewBox="0 0 186 210" fill="none" xmlns="http://www.w3.org/2000/svg">
<path d="M16.8494 188.999L0 0H185.062L168.192 189.013L92.4858 210L16.8494 188.999Z" fill="#E34E26"/>
<path d="M92.5312 15.4531V193.951L153.749 176.982L168.172 15.4531H92.5312Z" fill="#EF662A"/>
<path d="M34.4688 38.625L40.717 108.723H121.061L118.364 138.79L92.4955 145.784L66.6757 138.8L64.9494 119.494H41.6815L45.0087 156.71L92.49 169.897L140.031 156.71L146.405 85.5457H61.918L59.7967 61.8076H148.435H148.506L150.582 38.625H34.4688Z" fill="white"/>
<path d="M92.5411 38.625H34.4844L40.7326 108.723H92.5411V85.5457H61.9337L59.8123 61.8076H92.5411V38.625Z" fill="#EBEBEB"/>
<path d="M92.5393 145.779L92.5094 145.789L66.6895 138.806L64.9633 119.5H41.6953L45.0225 156.715L92.5039 169.903L92.5393 169.893V145.779Z" fill="#EBEBEB"/>
</svg>
