<svg width="240" height="234" viewBox="0 0 240 234" fill="none" xmlns="http://www.w3.org/2000/svg">
<g clip-path="url(#clip0_2344_980)">
<path d="M42.5 0H197.5C221 0 240 19 240 42.5V191.5C240 215 221 234 197.5 234H42.5C19 234 0 215 0 191.5V42.5C0 19 19 0 42.5 0Z" fill="#330000"/>
<path d="M116.303 140.398H79.1033L71.5033 163.898C71.3033 164.798 70.5033 165.398 69.6033 165.298H50.8033C49.7033 165.298 49.4033 164.698 49.7033 163.498L81.9033 70.7984C82.2033 69.7984 82.5033 68.6984 82.9033 67.4984C83.3033 65.3984 83.5033 63.1984 83.5033 60.9984C83.4033 60.4984 83.8033 59.9984 84.3033 59.8984C84.4033 59.8984 84.5033 59.8984 84.6033 59.8984H110.203C111.003 59.8984 111.403 60.1984 111.503 60.6984L148.003 163.698C148.303 164.798 148.003 165.298 147.003 165.298H126.103C125.403 165.398 124.703 164.898 124.503 164.198L116.303 140.398ZM84.9033 120.098H110.303C109.703 117.998 108.903 115.498 108.003 112.898C107.103 110.198 106.203 107.298 105.303 104.298C104.303 101.198 103.403 98.1984 102.403 95.0984C101.403 91.9984 100.503 89.0984 99.7033 86.1984C98.9033 83.3984 98.2033 80.7984 97.5033 78.3984H97.3033C96.4033 82.6984 95.3033 86.9984 93.9033 91.2984C92.4033 96.0984 90.9033 101.098 89.3033 106.098C87.9033 111.198 86.4033 115.898 84.9033 120.098Z" fill="#FF9A00"/>
<path d="M169.806 76.9984C166.506 77.0984 163.306 75.7984 160.906 73.4984C158.606 70.9984 157.406 67.6984 157.506 64.2984C157.406 60.8984 158.706 57.6984 161.106 55.3984C163.506 53.0984 166.706 51.8984 170.006 51.8984C173.906 51.8984 176.906 53.0984 179.106 55.3984C181.306 57.7984 182.506 60.9984 182.406 64.2984C182.506 67.6984 181.306 70.9984 178.906 73.4984C176.606 75.8984 173.206 77.1984 169.806 76.9984ZM158.606 163.798V86.7984C158.606 85.7984 159.006 85.3984 159.906 85.3984H179.706C180.606 85.3984 181.006 85.8984 181.006 86.7984V163.798C181.006 164.898 180.606 165.398 179.706 165.398H160.106C159.106 165.398 158.606 164.798 158.606 163.798Z" fill="#FF9A00"/>
</g>
<defs>
<clipPath id="clip0_2344_980">
<rect width="240" height="234" fill="white"/>
</clipPath>
</defs>
</svg>
