<svg width="86" height="86" viewBox="0 0 86 86" fill="none" xmlns="http://www.w3.org/2000/svg">
<path d="M86 43C86 66.8 66.7 86 43 86C19.2 86 0 66.7 0 43C0 19.2 19.3 0 43 0C66.7 0 86 19.2 86 43Z" fill="url(#paint0_linear_2367_545)"/>
<path d="M58.2004 25.8999C56.4004 25.8999 54.9004 27.3999 54.9004 29.1999C54.9004 30.9999 56.4004 32.4999 58.2004 32.4999C60.0004 32.4999 61.5004 30.9999 61.5004 29.1999C61.5004 27.3999 60.0004 25.8999 58.2004 25.8999Z" fill="white"/>
<path d="M43.2998 29C35.5998 29 29.2998 35.3 29.2998 43C29.2998 50.7 35.5998 57 43.2998 57C50.9998 57 57.2998 50.7 57.2998 43C57.3998 35.3 51.0998 29 43.2998 29ZM43.2998 52C38.2998 52 34.2998 48 34.2998 43C34.2998 38 38.2998 34 43.2998 34C48.2998 34 52.2998 38 52.2998 43C52.2998 48 48.2998 52 43.2998 52Z" fill="white"/>
<path d="M54.6002 71.5H31.8002C22.4002 71.5 14.7002 63.8 14.7002 54.4V31.6C14.7002 22.2 22.4002 14.5 31.8002 14.5H54.6002C64.0002 14.5 71.7002 22.2 71.7002 31.6V54.4C71.7002 63.8 64.0002 71.5 54.6002 71.5ZM31.8002 19.9C25.3002 19.9 20.0002 25.2 20.0002 31.7V54.5C20.0002 61 25.3002 66.3 31.8002 66.3H54.6002C61.1002 66.3 66.4002 61 66.4002 54.5V31.7C66.4002 25.2 61.1002 19.9 54.6002 19.9H31.8002Z" fill="white"/>
<defs>
<linearGradient id="paint0_linear_2367_545" x1="12.5428" y1="12.5892" x2="73.3786" y2="73.425" gradientUnits="userSpaceOnUse">
<stop offset="0.0224176" stop-color="#FF74E5"/>
<stop offset="1" stop-color="#FF6839"/>
</linearGradient>
</defs>
</svg>
