<svg width="189" height="213" viewBox="0 0 189 213" fill="none" xmlns="http://www.w3.org/2000/svg">
<rect x="25.2891" y="29.3203" width="139.009" height="156.14" fill="white"/>
<path d="M18.3108 191.51L0.914062 0L188.331 0.0730943L171.08 191.364L94.4762 213L18.3108 191.51ZM156.973 181.057L171.519 17.0312H94.7686L95.3533 197.942L156.973 181.057ZM87.6052 41.0796H68.9659L68.7466 139.247L32.5644 129.379L32.6375 151.819L87.6052 166.658V41.0796Z" fill="#D4B830"/>
<path opacity="0.986" d="M32.6356 151.815L32.5625 129.375C32.5625 129.375 55.6606 135.88 68.7447 139.242L68.964 41.1484H87.6033V166.653L32.6356 151.815Z" fill="#EBEBEB" fill-opacity="0.9216"/>
<path d="M94.7734 16.9609H171.524L156.978 180.987L94.7734 197.872V16.9609ZM153.03 153.503L158.074 92.1761L120.795 96.3425V63.5958L160.559 63.4496L162.167 41.0824L102.156 41.3748L102.96 122.803L139.215 116.59L138.704 134.718L102.156 144.439L102.522 166.66L153.03 153.503Z" fill="#FDD83C"/>
</svg>
