<svg width="87" height="87" viewBox="0 0 87 87" fill="none" xmlns="http://www.w3.org/2000/svg">
<path d="M86.8 43.4C86.8 67.4 67.4 86.8 43.4 86.8C19.4 86.8 0 67.4 0 43.4C0 19.4 19.4 0 43.4 0C67.4 0 86.8 19.4 86.8 43.4Z" fill="url(#paint0_linear_2367_539)"/>
<path d="M22.8 34.3001H32.3V64.8001H22.8V34.3001ZM27.5 19.1001C30.5 19.1001 33 21.6001 33 24.6001C33 27.6001 30.5 30.1001 27.5 30.1001C24.5 30.1001 22 27.6001 22 24.6001C22 21.6001 24.5 19.1001 27.5 19.1001Z" fill="white"/>
<path d="M38.2002 34.3001H47.3002V38.5001H47.4002C48.7002 36.1001 51.8002 33.6001 56.4002 33.6001C66.0002 33.6001 67.8002 39.9001 67.8002 48.1001V64.8001H58.3002V50.0001C58.3002 46.5001 58.2002 41.9001 53.4002 41.9001C48.5002 41.9001 47.7002 45.8001 47.7002 49.7001V64.8001H38.2002V34.3001Z" fill="white"/>
<defs>
<linearGradient id="paint0_linear_2367_539" x1="12.7461" y1="12.7193" x2="74.0973" y2="74.0706" gradientUnits="userSpaceOnUse">
<stop stop-color="#8BBDFB"/>
<stop offset="0.5204" stop-color="#4481F0"/>
<stop offset="1" stop-color="#0046E5"/>
</linearGradient>
</defs>
</svg>
