<svg xmlns="http://www.w3.org/2000/svg" viewBox="0 0 3603.7 3971.21"><defs><style>.cls-1{fill:#8cc84b;}</style></defs><g id="Layer_2" data-name="Layer 2"><g id="Layer_1-2" data-name="Layer 1"><path class="cls-1" d="M1639.25,42.37c98.47-56.37,226.73-56.62,325.11,0q742.43,419.51,1484.93,838.75c93.08,52.43,155.34,156,154.4,263.27V2827c.69,111.69-67.72,217.75-165.92,269q-740,417.21-1479.65,834.74c-100.5,57.47-231.33,53-328.7-9.13q-221.85-128.61-444-256.71c-30.23-18-64.3-32.36-85.64-61.66,18.86-25.43,52.6-28.6,80-39.71,61.73-19.63,118.44-51.14,175.15-81.72,14.34-9.81,31.85-6,45.6,2.73,126.47,72.52,251.83,147.14,378.72,219,27.07,15.63,54.48-5.12,77.62-18q726.17-410.41,1452.83-819.87c17.94-8.63,27.85-27.67,26.4-47.32q.49-832.59.16-1665.29c2.06-22.29-10.84-42.78-31-51.91Q2567.88,685.82,1830.8,270a51.2,51.2,0,0,0-57.9-.09q-737.31,415.53-1474.34,831.4c-20.09,9.14-33.57,29.3-31.18,51.67q.14,832.61,0,1665.38a47.1,47.1,0,0,0,26.73,46.72q196.75,111.57,393.76,222.36c73.94,39.8,164.73,63.45,246.2,33C1006,3094.65,1056.35,3021.29,1055,2945c.68-551.83-.34-1103.74.51-1655.48-1.79-24.5,21.44-44.74,45.26-42.43,63-.43,126.13-.85,189.16.17,26.3-.6,44.41,25.78,41.16,50.46-.26,555.32.67,1110.66-.43,1666,.17,148-60.63,309-197.53,381.46-168.65,87.36-377.09,68.83-543.71-14.94-144.23-72-281.88-157-423.55-234.07C67.39,3045.14-.68,2938.65,0,2827V1144.39c-1-109.47,63.7-214.94,159.68-266.6Q899.57,460.25,1639.25,42.37Z"/><path class="cls-1" d="M2069.56,1207.94c215.12-13.85,445.42-8.2,639,97.77,149.88,81.22,233,251.66,235.61,418.17-4.18,22.46-27.66,34.85-49.1,33.31-62.42-.08-124.85.85-187.26-.42-26.48,1-41.87-23.4-45.19-46.8-17.94-79.67-61.39-158.58-136.38-197-115.11-57.63-248.58-54.73-374.11-53.53-91.63,4.86-190.17,12.8-267.81,66.68-59.6,40.82-77.7,123.22-56.43,189.59,20.06,47.65,75.06,63,120.07,77.19,259.25,67.81,534,61.06,788.27,150.29,105.29,36.38,208.28,107.1,244.32,217.33,47.14,147.75,26.48,324.34-78.64,442.95-85.24,97.61-209.39,150.73-333.22,179.58-164.73,36.73-335.68,37.67-503,21.36-157.31-17.94-321-59.26-442.44-166.44-103.85-90.17-154.57-230.66-149.53-366.25,1.2-22.9,24-38.87,45.94-37,62.85-.51,125.71-.68,188.56.09,25.11-1.8,43.72,19.9,45,43.56,11.59,75.91,40.12,155.58,106.31,200.58,127.75,82.42,288,76.78,434.31,79.08,121.18-5.37,257.22-7,356.11-87.1,52.17-45.68,67.63-122.11,53.53-187.86-15.27-55.52-73.35-81.39-123.22-98.3-255.93-81-533.72-51.58-787.17-143.14-102.9-36.36-202.4-105.11-241.93-210.82-55.16-149.61-29.89-334.67,86.25-449.27,113.23-114,276.69-157.9,432.1-173.61Z"/></g></g></svg>