<svg width="181" height="200" viewBox="0 0 181 200" fill="none" xmlns="http://www.w3.org/2000/svg">
<g clip-path="url(#clip0_2344_1016)">
<path d="M82.3338 2.13392C87.2796 -0.705009 93.7216 -0.7176 98.6628 2.13392C123.522 16.219 148.383 30.2995 173.245 44.3755C177.92 47.016 181.047 52.232 181 57.6344V142.375C181.035 148 177.599 153.341 172.667 155.922C147.888 169.93 123.116 183.943 98.3494 197.962C93.3017 200.856 86.7306 200.631 81.8401 197.502C74.4116 193.184 66.9782 188.874 59.5397 184.574C58.0213 183.667 56.3101 182.944 55.2383 181.468C56.1856 180.187 57.8802 180.028 59.2564 179.468C62.3569 178.48 65.2052 176.893 68.0535 175.353C68.7738 174.859 69.6532 175.05 70.3438 175.49C76.6959 179.142 82.9923 182.9 89.3655 186.52C90.7251 187.307 92.1018 186.262 93.264 185.613C117.579 171.834 141.903 158.07 166.234 144.322C167.135 143.888 167.633 142.929 167.56 141.939C167.576 113.985 167.579 86.0289 167.568 58.071C167.672 56.9485 167.024 55.9165 166.011 55.4567C141.321 41.512 116.635 27.5591 91.9546 13.5979C91.527 13.303 91.0203 13.1447 90.5013 13.1439C89.9822 13.1431 89.4751 13.2998 89.0465 13.5934C64.3584 27.5448 39.6749 41.5019 14.9961 55.4648C13.9871 55.9251 13.31 56.9404 13.43 58.067C13.4347 86.0219 13.4347 113.979 13.43 141.94C13.3873 142.422 13.4931 142.907 13.7331 143.327C13.9731 143.748 14.3359 144.085 14.7726 144.293C21.3606 148.039 27.9529 151.771 34.5496 155.491C38.2634 157.496 42.8234 158.687 46.9153 157.153C50.5281 155.854 53.057 152.16 52.9892 148.318C53.0233 120.526 52.9721 92.7305 53.0148 64.9435C52.9249 63.7096 54.0916 62.6903 55.288 62.8066C58.4523 62.785 61.6231 62.7638 64.7888 62.8152C66.1098 62.785 67.0193 64.1135 66.8561 65.3565C66.8431 93.3238 66.8898 121.292 66.8345 149.26C66.8431 156.714 63.7893 164.822 56.9133 168.472C48.4427 172.871 37.9736 171.938 29.6049 167.719C22.3608 164.093 15.4471 159.812 8.33159 155.931C3.38531 153.361 -0.0335797 147.998 0.000574122 142.375V57.6344C-0.049652 52.1212 3.19998 46.8095 8.02069 44.2078C32.7952 30.1888 57.5663 16.1642 82.3338 2.13392Z" fill="#8CC84B"/>
<path d="M103.944 60.8388C114.749 60.1413 126.316 60.4258 136.038 65.7627C143.566 69.8532 147.741 78.4369 147.872 86.8228C147.662 87.9539 146.483 88.5779 145.406 88.5004C142.271 88.4963 139.135 88.5432 136.001 88.4792C134.671 88.5296 133.898 87.3007 133.731 86.1223C132.83 82.1099 130.648 78.1358 126.881 76.2008C121.1 73.2985 114.396 73.4445 108.091 73.5049C103.489 73.7497 98.5396 74.1496 94.64 76.8631C91.6466 78.9189 90.7375 83.0688 91.8058 86.4113C92.8133 88.8111 95.5757 89.5842 97.8364 90.2988C110.858 93.7139 124.657 93.3739 137.428 97.8678C142.717 99.7 147.889 103.262 149.699 108.813C152.067 116.254 151.029 125.148 145.75 131.121C141.468 136.037 135.233 138.712 129.013 140.165C120.74 142.015 112.153 142.062 103.75 141.241C95.8485 140.337 87.627 138.256 81.5275 132.859C76.3115 128.317 73.764 121.242 74.0172 114.413C74.0774 113.26 75.2226 112.456 76.3246 112.55C79.4813 112.524 82.6385 112.516 85.7952 112.555C87.0564 112.464 87.9911 113.557 88.0554 114.748C88.6375 118.571 90.0705 122.584 93.3949 124.85C99.8113 129.001 107.86 128.717 115.209 128.833C121.295 128.562 128.128 128.48 133.095 124.446C135.715 122.146 136.491 118.296 135.783 114.985C135.016 112.189 132.099 110.886 129.594 110.034C116.74 105.955 102.788 107.437 90.0579 102.825C84.8896 100.994 79.8921 97.5319 77.9067 92.2081C75.1362 84.6733 76.4054 75.3532 82.2387 69.5817C87.9258 63.8404 96.1358 61.6295 103.941 60.8383L103.944 60.8388Z" fill="#8CC84B"/>
</g>
<defs>
<clipPath id="clip0_2344_1016">
<rect width="181" height="200" fill="white"/>
</clipPath>
</defs>
</svg>
