<svg width="449" height="449" viewBox="0 0 449 449" fill="none" xmlns="http://www.w3.org/2000/svg">
<path d="M224 331.529C224 331.529 164.872 358.399 197.505 409.445L204.781 398.548C204.781 398.548 206.372 421.437 225.825 448.428C244.415 420.843 245.306 397.919 245.306 397.919L252.914 408.582C283.935 356.546 224 331.529 224 331.529Z" fill="url(#paint0_linear_2331_238)"/>
<path d="M223.999 331.529C223.999 331.529 187.116 348.287 207.474 380.128L212.007 373.333C212.007 373.333 213.004 387.61 225.131 404.446C236.727 387.235 237.279 372.937 237.279 372.937L242.023 379.591C261.384 347.135 223.999 331.529 223.999 331.529Z" fill="url(#paint1_linear_2331_238)"/>
<path d="M252.256 299.002L193.877 299.313L193.828 283.085L252.199 282.781L252.256 299.002Z" fill="url(#paint2_linear_2331_238)"/>
<path d="M169.483 230.37C169.483 230.37 140.216 255.607 140.286 278.036C140.357 302.233 145.215 327.074 158.36 356.37C165.382 372.004 165.042 348.924 165.693 334.485C166.824 309.213 173.584 302.948 189.034 293.253C189.02 293.253 181.928 272.613 169.483 230.37Z" fill="url(#paint3_linear_2331_238)"/>
<path opacity="0.33" d="M169.482 230.37C169.482 230.37 140.215 255.607 140.285 278.036C140.356 302.233 145.214 327.074 158.359 356.37C159.674 359.297 160.735 360.867 161.583 361.39C161.583 361.39 146.296 322.909 145.857 297.043C145.419 271.177 148.962 257.792 169.482 230.37Z" fill="white"/>
<path d="M276.552 229.805C276.552 229.805 305.975 254.73 306.046 277.159C306.13 301.357 301.421 326.247 288.453 355.677C281.53 371.381 281.728 348.301 280.986 333.869C279.699 308.612 272.903 302.424 257.39 292.893C257.39 292.893 264.362 272.174 276.552 229.805Z" fill="url(#paint4_linear_2331_238)"/>
<path d="M259.843 41.4525C235.01 7.55381 222.324 6.42244 222.324 6.42244C222.324 6.42244 209.646 7.68816 185.024 41.8556C159.01 77.9392 158.394 116.738 158.239 143.424C158.048 177.952 168.923 246.103 189.019 293.267L223.208 292.907L257.397 292.9C277.203 245.516 287.654 177.266 287.251 142.738C286.932 116.045 286.084 77.2533 259.843 41.4525Z" fill="url(#paint5_linear_2331_238)"/>
<path d="M197.688 293.168L223.2 292.9L257.389 292.893C277.195 245.509 287.646 177.259 287.243 142.731C286.932 116.045 286.069 77.2533 259.843 41.4525C235.009 7.55378 222.324 6.42241 222.324 6.42241" fill="url(#paint6_linear_2331_238)"/>
<path opacity="0.09" d="M193.863 293.204L252.369 292.893" stroke="black" stroke-width="1.8919" stroke-miterlimit="10"/>
<path d="M189.026 293.26L223.215 292.9L257.403 292.893C261.406 283.318 265.026 272.881 268.25 262.049L178.002 262.536C181.283 273.327 184.96 283.721 189.026 293.26Z" fill="url(#paint7_linear_2331_238)"/>
<path d="M224.883 236.982L257.389 292.893L251.866 294.031L252.255 299.002L229.578 299.122L224.883 236.982Z" fill="url(#paint8_linear_2331_238)"/>
<path d="M167.537 75.3936L277.535 74.8138" stroke="black" stroke-width="1.8919" stroke-miterlimit="10"/>
<path d="M222.323 6.4224C222.323 6.4224 209.645 7.68812 185.024 41.8555C177.04 52.9217 171.461 64.2425 167.544 75.4007L277.534 74.8138C273.546 63.698 267.889 52.4409 259.843 41.4525C235.009 7.55377 222.323 6.4224 222.323 6.4224Z" fill="url(#paint9_linear_2331_238)"/>
<mask id="mask0_2331_238" style="mask-type:luminance" maskUnits="userSpaceOnUse" x="158" y="6" width="130" height="288">
<path d="M259.843 41.4525C235.01 7.55381 222.324 6.42244 222.324 6.42244C222.324 6.42244 209.646 7.68816 185.024 41.8556C159.01 77.9392 158.394 116.738 158.239 143.424C158.048 177.952 168.923 246.103 189.019 293.267L223.208 292.907L257.397 292.9C277.203 245.516 287.654 177.266 287.251 142.738C286.932 116.045 286.084 77.2533 259.843 41.4525Z" fill="white"/>
</mask>
<g mask="url(#mask0_2331_238)">
<path d="M289.563 86.375L157.793 87.7397L157.737 82.0687L289.506 80.704L289.563 86.375Z" fill="url(#paint10_linear_2331_238)"/>
</g>
<mask id="mask1_2331_238" style="mask-type:luminance" maskUnits="userSpaceOnUse" x="158" y="6" width="130" height="288">
<path d="M259.843 41.4525C235.01 7.55381 222.324 6.42244 222.324 6.42244C222.324 6.42244 209.646 7.68816 185.024 41.8556C159.01 77.9392 158.394 116.738 158.239 143.424C158.048 177.952 168.923 246.103 189.019 293.267L223.208 292.907L257.397 292.9C277.203 245.516 287.654 177.266 287.251 142.738C286.932 116.045 286.084 77.2533 259.843 41.4525Z" fill="white"/>
</mask>
<g mask="url(#mask1_2331_238)">
<path d="M290.779 95.7654L159.01 97.1301L158.968 93.34L290.737 91.9753L290.779 95.7654Z" fill="url(#paint11_linear_2331_238)"/>
</g>
<path opacity="0.09" d="M177.98 262.529L268.236 262.049" stroke="black" stroke-width="1.8919" stroke-miterlimit="10"/>
<path d="M223.032 235.596C223.032 235.596 216.576 234.203 216.731 283.318C216.88 332.427 219.602 376.897 223.47 376.876C227.338 376.854 229.777 332.356 229.629 283.248C229.473 234.146 223.032 235.596 223.032 235.596Z" fill="url(#paint12_linear_2331_238)"/>
<path opacity="0.33" d="M223.032 235.596C223.032 235.596 216.576 234.203 216.731 283.318C216.88 332.427 219.602 376.897 223.47 376.876C223.47 376.876 220.479 360.195 219.284 322.259C218.089 284.337 217.771 241.889 223.032 235.596Z" fill="white"/>
<path d="M253.697 193.657C270.521 176.833 270.521 149.557 253.697 132.733C236.873 115.909 209.596 115.909 192.773 132.733C175.949 149.557 175.949 176.833 192.773 193.657C209.596 210.481 236.873 210.481 253.697 193.657Z" fill="url(#paint13_linear_2331_238)"/>
<path d="M252.475 192.716C269.155 175.935 269.072 148.81 252.291 132.131C235.51 115.452 208.385 115.535 191.706 132.316C175.027 149.097 175.11 176.222 191.891 192.901C208.672 209.58 235.796 209.497 252.475 192.716Z" fill="#D4D4D4"/>
<path d="M252.757 192.434C269.284 175.907 269.284 149.111 252.757 132.584C236.23 116.057 209.434 116.057 192.907 132.584C176.38 149.111 176.38 175.907 192.907 192.434C209.434 208.961 236.23 208.961 252.757 192.434Z" fill="url(#paint14_linear_2331_238)"/>
<path d="M245.447 185.932C258.286 172.942 258.164 152.003 245.173 139.164C232.183 126.325 211.244 126.447 198.405 139.438C185.566 152.428 185.689 173.367 198.679 186.206C211.669 199.045 232.608 198.922 245.447 185.932Z" fill="#76C9F0"/>
<path d="M244.979 185.405C257.371 173.014 257.371 152.924 244.979 140.532C232.588 128.141 212.498 128.141 200.106 140.532C187.715 152.924 187.715 173.014 200.106 185.405C212.498 197.797 232.588 197.797 244.979 185.405Z" fill="url(#paint15_linear_2331_238)"/>
<mask id="mask2_2331_238" style="mask-type:luminance" maskUnits="userSpaceOnUse" x="190" y="131" width="65" height="64">
<path d="M245.092 185.294C257.423 172.842 257.324 152.752 244.873 140.422C232.421 128.091 212.331 128.19 200 140.642C187.67 153.094 187.768 173.184 200.22 185.514C212.672 197.845 232.762 197.746 245.092 185.294Z" fill="white"/>
</mask>
<g mask="url(#mask2_2331_238)">
<path d="M225.477 124.552L197.709 196.245L209.341 200.749L237.109 129.056L225.477 124.552Z" fill="url(#paint16_linear_2331_238)"/>
</g>
<mask id="mask3_2331_238" style="mask-type:luminance" maskUnits="userSpaceOnUse" x="190" y="131" width="65" height="64">
<path d="M245.092 185.294C257.423 172.842 257.324 152.752 244.873 140.422C232.421 128.091 212.331 128.19 200 140.642C187.67 153.094 187.768 173.184 200.22 185.514C212.672 197.845 232.762 197.746 245.092 185.294Z" fill="white"/>
</mask>
<g mask="url(#mask3_2331_238)">
<path d="M242.92 132.082L215.152 203.776L221.007 206.039L248.775 134.345L242.92 132.082Z" fill="url(#paint17_linear_2331_238)"/>
</g>
<path d="M186.134 164.772C185.59 163.93 184.472 163.704 183.631 164.249C182.789 164.793 182.563 165.91 183.108 166.752C183.652 167.593 184.769 167.819 185.611 167.275C186.445 166.723 186.679 165.599 186.134 164.772Z" fill="#A3A3A3"/>
<path d="M188.687 176.206C188.142 175.364 187.025 175.138 186.184 175.683C185.342 176.227 185.116 177.344 185.66 178.186C186.205 179.027 187.322 179.253 188.164 178.709C188.998 178.157 189.231 177.047 188.687 176.206Z" fill="#A3A3A3"/>
<path d="M186.331 154.901C185.787 154.059 184.67 153.833 183.828 154.377C182.987 154.922 182.76 156.039 183.305 156.881C183.849 157.722 184.967 157.948 185.808 157.404C186.649 156.859 186.883 155.735 186.331 154.901Z" fill="#A3A3A3"/>
<path d="M202.701 192.512C201.704 192.42 200.827 193.155 200.742 194.145C200.65 195.142 201.386 196.019 202.376 196.104C203.373 196.196 204.25 195.46 204.334 194.47C204.426 193.487 203.698 192.604 202.701 192.512Z" fill="#A3A3A3"/>
<path d="M213.252 197.603C212.255 197.511 211.378 198.246 211.293 199.236C211.201 200.233 211.937 201.11 212.927 201.195C213.924 201.287 214.8 200.551 214.885 199.561C214.984 198.572 214.249 197.695 213.252 197.603Z" fill="#A3A3A3"/>
<path d="M193.996 184.84C192.999 184.748 192.122 185.483 192.037 186.473C191.945 187.47 192.681 188.347 193.671 188.432C194.661 188.516 195.545 187.788 195.629 186.798C195.714 185.808 194.986 184.939 193.996 184.84Z" fill="#A3A3A3"/>
<path d="M234.309 197.278C233.623 198.006 233.665 199.151 234.387 199.83C235.115 200.516 236.261 200.474 236.939 199.752C237.625 199.024 237.583 197.879 236.862 197.2C236.133 196.514 234.988 196.556 234.309 197.278Z" fill="#A3A3A3"/>
<path d="M244.817 192.087C244.131 192.816 244.173 193.961 244.895 194.64C245.623 195.326 246.768 195.284 247.447 194.562C248.133 193.834 248.091 192.688 247.369 192.01C246.641 191.324 245.503 191.359 244.817 192.087Z" fill="#A3A3A3"/>
<path d="M222.903 199.434C222.217 200.163 222.259 201.308 222.98 201.987C223.709 202.673 224.854 202.63 225.533 201.909C226.219 201.181 226.177 200.035 225.455 199.356C224.734 198.663 223.589 198.706 222.903 199.434Z" fill="#A3A3A3"/>
<path d="M257.51 174.968C257.658 175.951 258.578 176.63 259.568 176.489C260.551 176.34 261.229 175.421 261.088 174.431C260.939 173.448 260.02 172.769 259.03 172.911C258.047 173.059 257.361 173.985 257.51 174.968Z" fill="#A3A3A3"/>
<path d="M259.615 163.966C259.764 164.949 260.683 165.627 261.673 165.486C262.656 165.338 263.335 164.418 263.193 163.428C263.045 162.445 262.126 161.767 261.136 161.908C260.146 162.064 259.467 162.983 259.615 163.966Z" fill="#A3A3A3"/>
<path d="M251.944 184.889C252.092 185.872 253.011 186.551 254.001 186.409C254.984 186.261 255.663 185.342 255.522 184.352C255.373 183.369 254.454 182.69 253.464 182.831C252.481 182.98 251.802 183.899 251.944 184.889Z" fill="#A3A3A3"/>
<path d="M253.634 144.379C254.49 144.895 255.6 144.619 256.116 143.764C256.632 142.908 256.356 141.798 255.501 141.282C254.645 140.766 253.535 141.041 253.019 141.897C252.51 142.76 252.785 143.87 253.634 144.379Z" fill="#A3A3A3"/>
<path d="M246.902 135.936C247.757 136.452 248.867 136.176 249.384 135.321C249.9 134.465 249.624 133.355 248.768 132.839C247.913 132.323 246.803 132.598 246.286 133.454C245.77 134.31 246.046 135.42 246.902 135.936Z" fill="#A3A3A3"/>
<path d="M258.626 154.575C259.482 155.092 260.592 154.816 261.108 153.96C261.624 153.105 261.349 151.994 260.493 151.478C259.637 150.962 258.527 151.238 258.011 152.093C257.495 152.949 257.771 154.059 258.626 154.575Z" fill="#A3A3A3"/>
<path d="M228.511 126.341C229.444 125.987 229.911 124.94 229.557 124.007C229.204 123.074 228.157 122.607 227.224 122.961C226.29 123.314 225.824 124.361 226.177 125.294C226.538 126.234 227.584 126.701 228.511 126.341Z" fill="#A3A3A3"/>
<path d="M216.942 126.383C217.876 126.03 218.342 124.983 217.989 124.05C217.635 123.116 216.589 122.65 215.655 123.003C214.722 123.357 214.255 124.403 214.609 125.337C214.962 126.27 216.009 126.737 216.942 126.383Z" fill="#A3A3A3"/>
<path d="M239.018 130.074C239.952 129.721 240.418 128.674 240.065 127.741C239.711 126.807 238.665 126.341 237.731 126.694C236.798 127.048 236.331 128.094 236.685 129.028C237.046 129.968 238.092 130.435 239.018 130.074Z" fill="#A3A3A3"/>
<path d="M197.089 135.181C196.593 134.313 195.488 134.012 194.62 134.507C193.752 135.003 193.45 136.109 193.946 136.977C194.442 137.845 195.547 138.146 196.415 137.65C197.283 137.155 197.585 136.049 197.089 135.181Z" fill="#A3A3A3"/>
<path d="M190.687 145.92C190.984 144.973 190.46 143.955 189.499 143.658C188.551 143.361 187.533 143.884 187.236 144.846C186.939 145.793 187.462 146.811 188.424 147.108C189.371 147.405 190.39 146.868 190.687 145.92Z" fill="#A3A3A3"/>
<path d="M206.616 128.29C206.252 127.359 205.202 126.9 204.271 127.264C203.34 127.628 202.88 128.678 203.245 129.609C203.609 130.54 204.659 131 205.59 130.635C206.521 130.271 206.98 129.221 206.616 128.29Z" fill="#A3A3A3"/>
<path d="M185.597 164.772C185.052 163.93 183.935 163.704 183.094 164.249C182.252 164.793 182.026 165.91 182.571 166.752C183.115 167.593 184.232 167.819 185.074 167.275C185.908 166.723 186.141 165.599 185.597 164.772Z" fill="#D4D4D4"/>
<path d="M188.15 176.206C187.605 175.364 186.488 175.138 185.646 175.683C184.805 176.227 184.579 177.344 185.123 178.186C185.668 179.027 186.785 179.253 187.626 178.709C188.461 178.157 188.694 177.047 188.15 176.206Z" fill="#D4D4D4"/>
<path d="M185.794 154.901C185.25 154.059 184.132 153.833 183.291 154.377C182.45 154.922 182.223 156.039 182.768 156.881C183.312 157.722 184.429 157.948 185.271 157.404C186.112 156.859 186.346 155.735 185.794 154.901Z" fill="#D4D4D4"/>
<path d="M202.164 192.512C201.167 192.42 200.29 193.155 200.205 194.145C200.12 195.135 200.848 196.019 201.838 196.104C202.835 196.196 203.712 195.46 203.797 194.47C203.889 193.487 203.161 192.604 202.164 192.512Z" fill="#D4D4D4"/>
<path d="M212.715 197.603C211.718 197.511 210.841 198.246 210.756 199.236C210.664 200.233 211.399 201.11 212.389 201.195C213.379 201.28 214.263 200.551 214.348 199.561C214.447 198.572 213.712 197.695 212.715 197.603Z" fill="#D4D4D4"/>
<path d="M193.46 184.84C192.463 184.748 191.587 185.483 191.502 186.473C191.417 187.463 192.145 188.347 193.135 188.432C194.132 188.524 195.009 187.788 195.094 186.798C195.179 185.808 194.45 184.939 193.46 184.84Z" fill="#D4D4D4"/>
<path d="M233.772 197.278C233.086 198.006 233.128 199.151 233.85 199.83C234.578 200.516 235.723 200.474 236.402 199.752C237.088 199.024 237.046 197.879 236.324 197.2C235.596 196.514 234.451 196.556 233.772 197.278Z" fill="#D4D4D4"/>
<path d="M244.28 192.087C243.594 192.816 243.636 193.961 244.357 194.64C245.086 195.326 246.231 195.283 246.91 194.562C247.596 193.834 247.554 192.688 246.832 192.01C246.104 191.324 244.966 191.359 244.28 192.087Z" fill="#D4D4D4"/>
<path d="M222.366 199.434C221.68 200.163 221.722 201.308 222.443 201.987C223.172 202.673 224.317 202.63 224.996 201.909C225.682 201.181 225.639 200.035 224.918 199.356C224.197 198.663 223.051 198.706 222.366 199.434Z" fill="#D4D4D4"/>
<path d="M256.973 174.968C257.121 175.951 258.041 176.63 259.031 176.489C260.013 176.34 260.692 175.421 260.551 174.431C260.402 173.448 259.483 172.769 258.493 172.911C257.51 173.059 256.824 173.985 256.973 174.968Z" fill="#D4D4D4"/>
<path d="M259.078 163.966C259.227 164.949 260.146 165.627 261.136 165.486C262.119 165.338 262.798 164.418 262.656 163.428C262.508 162.445 261.589 161.767 260.599 161.908C259.609 162.064 258.93 162.983 259.078 163.966Z" fill="#D4D4D4"/>
<path d="M251.406 184.889C251.555 185.872 252.474 186.551 253.464 186.409C254.447 186.261 255.126 185.342 254.984 184.352C254.836 183.369 253.917 182.69 252.927 182.831C251.944 182.98 251.265 183.899 251.406 184.889Z" fill="#D4D4D4"/>
<path d="M253.097 144.379C253.952 144.895 255.063 144.619 255.579 143.764C256.095 142.908 255.819 141.798 254.964 141.282C254.108 140.766 252.998 141.041 252.482 141.897C251.973 142.76 252.248 143.87 253.097 144.379Z" fill="#D4D4D4"/>
<path d="M246.366 135.936C247.222 136.452 248.332 136.176 248.848 135.321C249.365 134.465 249.089 133.355 248.233 132.839C247.378 132.323 246.267 132.598 245.751 133.454C245.235 134.31 245.511 135.42 246.366 135.936Z" fill="#D4D4D4"/>
<path d="M258.089 154.575C258.945 155.092 260.055 154.816 260.571 153.96C261.087 153.105 260.811 151.994 259.956 151.478C259.1 150.962 257.99 151.238 257.474 152.093C256.958 152.949 257.233 154.059 258.089 154.575Z" fill="#D4D4D4"/>
<path d="M227.973 126.341C228.907 125.987 229.374 124.941 229.02 124.007C228.666 123.074 227.62 122.607 226.687 122.961C225.753 123.314 225.286 124.361 225.64 125.294C226.001 126.235 227.047 126.701 227.973 126.341Z" fill="#D4D4D4"/>
<path d="M217.491 124.099C217.17 123.153 216.142 122.646 215.196 122.967C214.249 123.288 213.742 124.316 214.063 125.262C214.384 126.209 215.412 126.716 216.359 126.395C217.305 126.074 217.812 125.046 217.491 124.099Z" fill="#D4D4D4"/>
<path d="M238.489 130.081C239.422 129.728 239.889 128.681 239.536 127.748C239.182 126.814 238.136 126.348 237.202 126.701C236.269 127.055 235.802 128.101 236.156 129.035C236.509 129.968 237.556 130.435 238.489 130.081Z" fill="#D4D4D4"/>
<path d="M196.54 135.181C196.044 134.313 194.939 134.011 194.071 134.507C193.203 135.003 192.901 136.109 193.397 136.977C193.893 137.845 194.999 138.146 195.866 137.65C196.734 137.155 197.036 136.049 196.54 135.181Z" fill="#D4D4D4"/>
<path d="M190.151 145.92C190.448 144.973 189.925 143.955 188.964 143.658C188.016 143.361 186.998 143.884 186.701 144.846C186.404 145.793 186.927 146.811 187.889 147.108C188.836 147.405 189.854 146.868 190.151 145.92Z" fill="#D4D4D4"/>
<path d="M206.102 128.293C205.738 127.362 204.688 126.903 203.757 127.267C202.826 127.632 202.367 128.682 202.731 129.612C203.095 130.543 204.145 131.003 205.076 130.638C206.007 130.274 206.466 129.224 206.102 128.293Z" fill="#D4D4D4"/>
<path d="M183.895 164.072V167.442H184.255V164.072H183.895Z" fill="#B9B9B9"/>
<path d="M186.455 175.508V178.878H186.815V175.508H186.455Z" fill="#B9B9B9"/>
<path d="M184.1 154.206V157.576H184.46V154.206H184.1Z" fill="#B9B9B9"/>
<path d="M201.811 192.625V195.995H202.171V192.625H201.811Z" fill="#B9B9B9"/>
<path d="M212.367 197.715V201.085H212.727V197.715H212.367Z" fill="#B9B9B9"/>
<path d="M193.104 184.961V188.331H193.464V184.961H193.104Z" fill="#B9B9B9"/>
<path d="M234.908 196.835V200.205H235.268V196.835H234.908Z" fill="#B9B9B9"/>
<path d="M245.408 191.643V195.013H245.768V191.643H245.408Z" fill="#B9B9B9"/>
<path d="M223.498 198.982V202.352H223.858V198.982H223.498Z" fill="#B9B9B9"/>
<path d="M258.58 173.019V176.389H258.94V173.019H258.58Z" fill="#B9B9B9"/>
<path d="M260.682 162.011V165.381H261.042V162.011H260.682Z" fill="#B9B9B9"/>
<path d="M253.01 182.937V186.307H253.37V182.937H253.01Z" fill="#B9B9B9"/>
<path d="M253.848 141.162V144.532H254.208V141.162H253.848Z" fill="#B9B9B9"/>
<path d="M247.121 132.708V136.078H247.481V132.708H247.121Z" fill="#B9B9B9"/>
<path d="M258.838 151.357V154.727H259.198V151.357H258.838Z" fill="#B9B9B9"/>
<path d="M227.143 122.974V126.344H227.503V122.974H227.143Z" fill="#B9B9B9"/>
<path d="M215.57 123.013V126.383H215.93V123.013H215.57Z" fill="#B9B9B9"/>
<path d="M237.654 126.711V130.081H238.014V126.711H237.654Z" fill="#B9B9B9"/>
<path d="M194.785 134.391V137.76H195.145V134.391H194.785Z" fill="#B9B9B9"/>
<path d="M188.246 143.695V147.065H188.606V143.695H188.246Z" fill="#B9B9B9"/>
<path d="M204.221 127.285V130.655H204.581V127.285H204.221Z" fill="#B9B9B9"/>
<path opacity="0.33" d="M222.324 6.42244C222.324 6.42244 209.646 7.68816 185.024 41.8556C159.01 77.9392 158.394 116.738 158.239 143.424C158.048 177.952 168.923 246.103 189.019 293.267C189.026 293.26 120.43 99.7181 222.324 6.42244Z" fill="white"/>
<path opacity="0.33" d="M196.075 293.154L196.019 299.292L193.876 299.313L193.862 293.204L196.075 293.154Z" fill="white"/>
<g opacity="0.48">
<mask id="mask4_2331_238" style="mask-type:luminance" maskUnits="userSpaceOnUse" x="158" y="6" width="130" height="288">
<path d="M259.843 41.4525C235.01 7.55381 222.324 6.42244 222.324 6.42244C222.324 6.42244 209.646 7.68816 185.024 41.8556C159.01 77.9392 158.394 116.738 158.239 143.424C158.083 170.973 164.978 219.926 177.981 262.544C181.269 273.341 184.96 283.736 189.019 293.267L223.208 292.907L257.397 292.9C277.203 245.516 287.654 177.266 287.251 142.738C286.932 116.045 286.084 77.2533 259.843 41.4525Z" fill="white"/>
</mask>
<g mask="url(#mask4_2331_238)">
<path d="M257.39 292.893C257.39 292.893 318.866 105.085 222.318 6.41538L272.932 -13.327L335.787 282.35C335.787 282.35 303.508 297.008 257.39 292.893Z" fill="url(#paint18_linear_2331_238)"/>
</g>
</g>
<path d="M257.39 292.893L268.802 299.384C268.802 299.384 280.958 263.597 276.545 229.797C276.552 229.804 265.932 272.245 257.39 292.893Z" fill="url(#paint19_linear_2331_238)"/>
<path opacity="0.33" d="M282.471 339.682C282.619 325.094 278.412 315.357 277.563 313.547C277.733 313.943 278.03 314.735 278.405 316.185C279.784 320.844 280.618 326.558 280.993 333.876C281.467 343.203 281.558 356.122 283.432 359.877C283.85 360.648 284.33 360.945 284.839 360.916C284.839 360.916 284.839 360.916 284.854 360.916C284.825 360.888 282.301 355.875 282.471 339.682Z" fill="white"/>
<defs>
<linearGradient id="paint0_linear_2331_238" x1="221.842" y1="476.988" x2="226.081" y2="335.231" gradientUnits="userSpaceOnUse">
<stop stop-color="#FF8533"/>
<stop offset="0.9964" stop-color="#FFD052"/>
</linearGradient>
<linearGradient id="paint1_linear_2331_238" x1="224.05" y1="412.473" x2="224.776" y2="323.209" gradientUnits="userSpaceOnUse">
<stop offset="0.00355872" stop-color="#FFD052"/>
<stop offset="1" stop-color="#FFE9AE"/>
</linearGradient>
<linearGradient id="paint2_linear_2331_238" x1="285.789" y1="306.159" x2="174.813" y2="279.428" gradientUnits="userSpaceOnUse">
<stop stop-color="#767B7F"/>
<stop offset="1" stop-color="#A3A3A3"/>
</linearGradient>
<linearGradient id="paint3_linear_2331_238" x1="148.806" y1="294.845" x2="293.447" y2="304.488" gradientUnits="userSpaceOnUse">
<stop offset="0.00355872" stop-color="#F02E54"/>
<stop offset="1" stop-color="#8F1931"/>
</linearGradient>
<linearGradient id="paint4_linear_2331_238" x1="316.003" y1="319.144" x2="184.993" y2="231.52" gradientUnits="userSpaceOnUse">
<stop offset="0.00355872" stop-color="#F02E54"/>
<stop offset="1" stop-color="#8F1931"/>
</linearGradient>
<linearGradient id="paint5_linear_2331_238" x1="172.872" y1="136.425" x2="340.749" y2="204.429" gradientUnits="userSpaceOnUse">
<stop offset="0.00355872" stop-color="#EEF4FA"/>
<stop offset="1" stop-color="#CDDEED"/>
</linearGradient>
<linearGradient id="paint6_linear_2331_238" x1="192.767" y1="142.682" x2="335.188" y2="200.374" gradientUnits="userSpaceOnUse">
<stop offset="0.00355872" stop-color="#EEF4FA"/>
<stop offset="1" stop-color="#CDDEED"/>
</linearGradient>
<linearGradient id="paint7_linear_2331_238" x1="161.359" y1="270.614" x2="262.04" y2="281.152" gradientUnits="userSpaceOnUse">
<stop stop-color="#C7C7C7"/>
<stop offset="1" stop-color="#A3A3A3"/>
</linearGradient>
<linearGradient id="paint8_linear_2331_238" x1="221.387" y1="265.07" x2="259.047" y2="284.284" gradientUnits="userSpaceOnUse">
<stop stop-color="#1D262D"/>
<stop offset="1" stop-color="#1D262D" stop-opacity="0"/>
</linearGradient>
<linearGradient id="paint9_linear_2331_238" x1="201.654" y1="45.917" x2="369.597" y2="27.4669" gradientUnits="userSpaceOnUse">
<stop offset="0.00355872" stop-color="#F02E54"/>
<stop offset="1" stop-color="#8F1931"/>
</linearGradient>
<linearGradient id="paint10_linear_2331_238" x1="482.655" y1="88.9138" x2="131.223" y2="82.55" gradientUnits="userSpaceOnUse">
<stop stop-color="#8F1931"/>
<stop offset="0.9964" stop-color="#F02E54"/>
</linearGradient>
<linearGradient id="paint11_linear_2331_238" x1="482.469" y1="99.2167" x2="131.038" y2="92.8529" gradientUnits="userSpaceOnUse">
<stop stop-color="#8F1931"/>
<stop offset="0.9964" stop-color="#F02E54"/>
</linearGradient>
<linearGradient id="paint12_linear_2331_238" x1="188.398" y1="300.064" x2="316.824" y2="322.806" gradientUnits="userSpaceOnUse">
<stop offset="0.00355872" stop-color="#F02E54"/>
<stop offset="1" stop-color="#8F1931"/>
</linearGradient>
<linearGradient id="paint13_linear_2331_238" x1="241.317" y1="169.592" x2="300.344" y2="190.46" gradientUnits="userSpaceOnUse">
<stop stop-color="#1D262D"/>
<stop offset="0.6767" stop-color="#1D262D" stop-opacity="0.3233"/>
<stop offset="1" stop-color="#1D262D" stop-opacity="0"/>
</linearGradient>
<linearGradient id="paint14_linear_2331_238" x1="176.494" y1="143.928" x2="301.645" y2="194.125" gradientUnits="userSpaceOnUse">
<stop stop-color="#C7C7C7"/>
<stop offset="1" stop-color="#A3A3A3"/>
</linearGradient>
<linearGradient id="paint15_linear_2331_238" x1="177.118" y1="153.478" x2="289.096" y2="176.873" gradientUnits="userSpaceOnUse">
<stop stop-color="#ADE5FF"/>
<stop offset="1" stop-color="#76C9F0"/>
</linearGradient>
<linearGradient id="paint16_linear_2331_238" x1="225.531" y1="122.68" x2="209.535" y2="201.379" gradientUnits="userSpaceOnUse">
<stop stop-color="#F9FBFC"/>
<stop offset="1" stop-color="#F9FBFC" stop-opacity="0"/>
</linearGradient>
<linearGradient id="paint17_linear_2331_238" x1="240.76" y1="125.775" x2="224.765" y2="204.475" gradientUnits="userSpaceOnUse">
<stop stop-color="#F9FBFC"/>
<stop offset="1" stop-color="#F9FBFC" stop-opacity="0"/>
</linearGradient>
<linearGradient id="paint18_linear_2331_238" x1="399.317" y1="113.44" x2="233.433" y2="151.789" gradientUnits="userSpaceOnUse">
<stop stop-color="#1D262D"/>
<stop offset="1" stop-color="#1D262D" stop-opacity="0"/>
</linearGradient>
<linearGradient id="paint19_linear_2331_238" x1="249.313" y1="255.649" x2="283.56" y2="268.758" gradientUnits="userSpaceOnUse">
<stop stop-color="#1D262D"/>
<stop offset="1" stop-color="#1D262D" stop-opacity="0"/>
</linearGradient>
</defs>
</svg>
