<?xml version="1.0" encoding="utf-8"?>
<!-- Generator: Adobe Illustrator 25.0.1, SVG Export Plug-In . SVG Version: 6.00 Build 0)  -->
<svg version="1.1" xmlns="http://www.w3.org/2000/svg" xmlns:xlink="http://www.w3.org/1999/xlink" x="0px" y="0px"
	 viewBox="0 0 500 500" style="enable-background:new 0 0 500 500;" xml:space="preserve">
<style type="text/css">
	.st0{fill:#FFFFFF;}
	.st1{fill:#7ACDFF;}
	.st2{fill:url(#SVGID_1_);}
	.st3{fill:url(#SVGID_2_);}
	.st4{fill:url(#SVGID_3_);}
	.st5{fill:url(#SVGID_4_);}
	.st6{opacity:0.33;fill:#FFFFFF;}
	.st7{fill:url(#SVGID_5_);}
	.st8{fill:url(#SVGID_6_);}
	.st9{fill:url(#SVGID_7_);}
	.st10{opacity:0.09;fill:none;stroke:#000000;stroke-width:1.8919;stroke-miterlimit:10;}
	.st11{fill:url(#SVGID_8_);}
	.st12{fill:url(#SVGID_9_);}
	.st13{fill:none;stroke:#000000;stroke-width:1.8919;stroke-miterlimit:10;}
	.st14{fill:url(#SVGID_10_);}
	.st15{clip-path:url(#SVGID_12_);fill:url(#SVGID_13_);}
	.st16{clip-path:url(#SVGID_12_);fill:url(#SVGID_14_);}
	.st17{fill:url(#SVGID_15_);}
	.st18{fill:url(#SVGID_16_);}
	.st19{fill:#D4D4D4;}
	.st20{fill:url(#SVGID_17_);}
	.st21{fill:#76C9F0;}
	.st22{fill:url(#SVGID_18_);}
	.st23{clip-path:url(#SVGID_20_);fill:url(#SVGID_21_);}
	.st24{clip-path:url(#SVGID_20_);fill:url(#SVGID_22_);}
	.st25{fill:#A3A3A3;}
	.st26{fill:#B9B9B9;}
	.st27{opacity:0.48;}
	.st28{clip-path:url(#SVGID_24_);fill:url(#SVGID_25_);}
	.st29{fill:url(#SVGID_26_);}
</style>
<g id="BACKGROUND">
	<rect class="st0" width="500" height="500"/>
</g>
<g id="OBJECTS">
	<circle class="st1" cx="250" cy="250" r="175"/>
	<g>
		<linearGradient id="SVGID_1_" gradientUnits="userSpaceOnUse" x1="69.8485" y1="426.8991" x2="173.0832" y2="329.6588">
			<stop  offset="0" style="stop-color:#FF8533"/>
			<stop  offset="0.9964" style="stop-color:#FFD052"/>
		</linearGradient>
		<path class="st2" d="M174.23,325.57c0,0-60.81-22.81-73.83,36.36l12.85-2.56c0,0-15.06,17.31-20.39,50.15
			c32.65-6.36,49.49-21.94,49.49-21.94l-2.16,12.92C198.92,385.64,174.23,325.57,174.23,325.57z"/>
		<linearGradient id="SVGID_2_" gradientUnits="userSpaceOnUse" x1="117.0295" y1="382.8422" x2="180.6624" y2="320.2356">
			<stop  offset="3.558720e-03" style="stop-color:#FFD052"/>
			<stop  offset="1" style="stop-color:#FFE9AE"/>
		</linearGradient>
		<path class="st3" d="M174.23,325.57c0,0-37.93-14.23-46.05,22.68l8.01-1.6c0,0-9.39,10.8-12.72,31.28
			c20.37-3.97,30.87-13.69,30.87-13.69l-1.35,8.06C189.63,363.04,174.23,325.57,174.23,325.57z"/>
		<linearGradient id="SVGID_3_" gradientUnits="userSpaceOnUse" x1="235.8603" y1="351.3223" x2="176.2907" y2="253.9489">
			<stop  offset="0" style="stop-color:#767B7F"/>
			<stop  offset="1" style="stop-color:#A3A3A3"/>
		</linearGradient>
		<polygon class="st4" points="217.21,322.55 175.71,281.49 187.15,269.98 228.64,311.04 		"/>
		<linearGradient id="SVGID_4_" gradientUnits="userSpaceOnUse" x1="146.9981" y1="246.4599" x2="242.4566" y2="355.5555">
			<stop  offset="3.558720e-03" style="stop-color:#F02E54"/>
			<stop  offset="1" style="stop-color:#8F1931"/>
		</linearGradient>
		<path class="st5" d="M207.21,215.49c0,0-38.54-2.85-54.35,13.06c-17.06,17.16-31.19,38.16-42.61,68.17
			c-6.09,16.02,9.99-0.54,20.66-10.29c18.67-17.07,27.88-16.72,45.66-12.65C176.56,273.77,186.14,254.16,207.21,215.49z"/>
		<path class="st6" d="M207.21,215.49c0,0-38.54-2.85-54.35,13.06c-17.06,17.16-31.19,38.16-42.61,68.17c-1.14,3-1.5,4.86-1.27,5.83
			c0,0,16.4-38.02,34.38-56.62S173.31,220.37,207.21,215.49"/>
		<linearGradient id="SVGID_5_" gradientUnits="userSpaceOnUse" x1="248.0439" y1="381.8685" x2="217.3649" y2="227.271">
			<stop  offset="3.558720e-03" style="stop-color:#F02E54"/>
			<stop  offset="1" style="stop-color:#8F1931"/>
		</linearGradient>
		<path class="st7" d="M283.32,290.8c0,0,3.18,38.43-12.63,54.34c-17.05,17.17-37.98,31.44-67.96,43.08
			c-16,6.21,0.46-9.97,10.14-20.7c16.95-18.77,16.52-27.95,12.29-45.66C225.16,321.86,244.74,312.14,283.32,290.8z"/>
		<linearGradient id="SVGID_6_" gradientUnits="userSpaceOnUse" x1="276.0368" y1="151.4578" x2="346.6577" y2="318.2509">
			<stop  offset="3.558720e-03" style="stop-color:#EEF4FA"/>
			<stop  offset="1" style="stop-color:#CDDEED"/>
		</linearGradient>
		<path class="st8" d="M404.69,145.8c6.41-41.53-1.76-51.3-1.76-51.3s-9.86-8.07-51.43-1.32c-43.91,7.12-71.78,34.12-90.76,52.88
			c-24.55,24.28-65.05,80.16-84.19,127.72l24.43,23.92l24.18,24.17c47.51-19.5,103.16-60.37,127.29-85.07
			C371.1,217.7,397.93,189.67,404.69,145.8z"/>
		<linearGradient id="SVGID_7_" gradientUnits="userSpaceOnUse" x1="285.6804" y1="169.9507" x2="345.5925" y2="311.4518">
			<stop  offset="3.558720e-03" style="stop-color:#EEF4FA"/>
			<stop  offset="1" style="stop-color:#CDDEED"/>
		</linearGradient>
		<path class="st9" d="M182.75,279.84l18.23,17.85l24.18,24.17c47.51-19.5,103.16-60.37,127.29-85.07
			c18.65-19.09,45.47-47.13,52.24-90.99c6.41-41.53-1.76-51.3-1.76-51.3"/>
		<line class="st10" x1="180.02" y1="277.16" x2="221.61" y2="318.31"/>
		<linearGradient id="SVGID_8_" gradientUnits="userSpaceOnUse" x1="173.0094" y1="238.2029" x2="236.7503" y2="316.8469">
			<stop  offset="0" style="stop-color:#C7C7C7"/>
			<stop  offset="1" style="stop-color:#A3A3A3"/>
		</linearGradient>
		<path class="st11" d="M176.56,273.78l24.43,23.92l24.18,24.17c9.6-3.94,19.54-8.76,29.48-14.14l-64.16-63.47
			C185.18,254.21,180.43,264.16,176.56,273.78z"/>
		<linearGradient id="SVGID_9_" gradientUnits="userSpaceOnUse" x1="219.3767" y1="276.7293" x2="232.4199" y2="316.9457">
			<stop  offset="0" style="stop-color:#1D262D"/>
			<stop  offset="1" style="stop-color:#1D262D;stop-opacity:0"/>
		</linearGradient>
		<polygon class="st12" points="241.71,259.34 225.16,321.86 220.45,318.76 217.21,322.55 201.09,306.6 		"/>
		<line class="st13" x1="315.42" y1="104.53" x2="393.61" y2="181.9"/>
		<linearGradient id="SVGID_10_" gradientUnits="userSpaceOnUse" x1="360.3875" y1="107.8113" x2="492.1876" y2="213.5191">
			<stop  offset="3.558720e-03" style="stop-color:#F02E54"/>
			<stop  offset="1" style="stop-color:#8F1931"/>
		</linearGradient>
		<path class="st14" d="M402.93,94.5c0,0-9.86-8.07-51.43-1.32c-13.47,2.18-25.42,6.24-36.08,11.36l78.19,77.36
			c5.04-10.68,9-22.64,11.08-36.1C411.1,104.27,402.93,94.5,402.93,94.5z"/>
		<g>
			<defs>
				<path id="SVGID_11_" d="M404.69,145.8c6.41-41.53-1.76-51.3-1.76-51.3s-9.86-8.07-51.43-1.32
					c-43.91,7.12-71.78,34.12-90.76,52.88c-24.55,24.28-65.05,80.16-84.19,127.72l24.43,23.92l24.18,24.17
					c47.51-19.5,103.16-60.37,127.29-85.07C371.1,217.7,397.93,189.67,404.69,145.8z"/>
			</defs>
			<clipPath id="SVGID_12_">
				<use xlink:href="#SVGID_11_"  style="overflow:visible;"/>
			</clipPath>
			<linearGradient id="SVGID_13_" gradientUnits="userSpaceOnUse" x1="528.6813" y1="336.9118" x2="284.6816" y2="83.9123">
				<stop  offset="0" style="stop-color:#8F1931"/>
				<stop  offset="0.9964" style="stop-color:#F02E54"/>
			</linearGradient>
			<polygon class="st15" points="393.94,198.58 299.8,106.37 303.77,102.32 397.91,194.53 			"/>
			<linearGradient id="SVGID_14_" gradientUnits="userSpaceOnUse" x1="521.2647" y1="344.0656" x2="277.265" y2="91.0662">
				<stop  offset="0" style="stop-color:#8F1931"/>
				<stop  offset="0.9964" style="stop-color:#F02E54"/>
			</linearGradient>
			<polygon class="st16" points="388.16,206.08 294.02,113.87 296.67,111.16 390.81,203.37 			"/>
		</g>
		<line class="st10" x1="190.48" y1="244.24" x2="254.64" y2="307.72"/>
		<linearGradient id="SVGID_15_" gradientUnits="userSpaceOnUse" x1="171.3046" y1="278.1467" x2="246.0342" y2="385.0383">
			<stop  offset="3.558720e-03" style="stop-color:#F02E54"/>
			<stop  offset="1" style="stop-color:#8F1931"/>
		</linearGradient>
		<path class="st17" d="M241.38,257.05c0,0-3.58-5.55-38.2,29.29c-34.62,34.83-64.14,68.2-61.39,70.92
			c2.75,2.72,35.94-27.02,70.56-61.85C246.96,260.58,241.38,257.05,241.38,257.05z"/>
		<path class="st6" d="M241.38,257.05c0,0-3.58-5.55-38.2,29.29c-34.62,34.83-64.14,68.2-61.39,70.92c0,0,9.68-13.91,35.66-41.58
			C203.42,288.02,233.21,257.78,241.38,257.05z"/>
		<g>
			<linearGradient id="SVGID_16_" gradientUnits="userSpaceOnUse" x1="300.983" y1="223.3097" x2="327.9652" y2="279.8038">
				<stop  offset="0" style="stop-color:#1D262D"/>
				<stop  offset="0.6767" style="stop-color:#1D262D;stop-opacity:0.3233"/>
				<stop  offset="1" style="stop-color:#1D262D;stop-opacity:0"/>
			</linearGradient>
			<circle class="st18" cx="292.72" cy="206" r="43.08"/>
			
				<ellipse transform="matrix(1 -3.046007e-03 3.046007e-03 1 -0.6222 0.8916)" class="st19" cx="292.39" cy="204.71" rx="42.84" ry="42.84"/>
			<linearGradient id="SVGID_17_" gradientUnits="userSpaceOnUse" x1="273.293" y1="159.3252" x2="326.2936" y2="283.3147">
				<stop  offset="0" style="stop-color:#C7C7C7"/>
				<stop  offset="1" style="stop-color:#A3A3A3"/>
			</linearGradient>
			<circle class="st20" cx="292.92" cy="205.23" r="42.32"/>
			
				<ellipse transform="matrix(1 -5.851120e-03 5.851120e-03 1 -1.1928 1.7129)" class="st21" cx="292.15" cy="204.71" rx="33.07" ry="33.07"/>
			<linearGradient id="SVGID_18_" gradientUnits="userSpaceOnUse" x1="266.9807" y1="166.5192" x2="329.6179" y2="262.2418">
				<stop  offset="0" style="stop-color:#ADE5FF"/>
				<stop  offset="1" style="stop-color:#76C9F0"/>
			</linearGradient>
			<circle class="st22" cx="292.39" cy="205.35" r="31.73"/>
			<g>
				<defs>
					
						<ellipse id="SVGID_19_" transform="matrix(1 -4.901805e-03 4.901805e-03 1 -1.0031 1.4357)" cx="292.39" cy="205.35" rx="31.73" ry="31.73"/>
				</defs>
				<clipPath id="SVGID_20_">
					<use xlink:href="#SVGID_19_"  style="overflow:visible;"/>
				</clipPath>
				<linearGradient id="SVGID_21_" gradientUnits="userSpaceOnUse" x1="322.9919" y1="178.9749" x2="256.0325" y2="223.3128">
					<stop  offset="0" style="stop-color:#F9FBFC"/>
					<stop  offset="1" style="stop-color:#F9FBFC;stop-opacity:0"/>
				</linearGradient>
				<polygon class="st23" points="321.63,180.26 251.3,211.32 256.34,222.73 326.67,191.67 				"/>
				<linearGradient id="SVGID_22_" gradientUnits="userSpaceOnUse" x1="331.5724" y1="191.9331" x2="264.613" y2="236.271">
					<stop  offset="0" style="stop-color:#F9FBFC"/>
					<stop  offset="1" style="stop-color:#F9FBFC;stop-opacity:0"/>
				</linearGradient>
				<polygon class="st24" points="328.64,197.92 258.31,228.98 260.85,234.72 331.18,203.66 				"/>
			</g>
			<g>
				<g>
					<path class="st25" d="M265.37,180.88c0.21-0.98-0.42-1.93-1.4-2.14c-0.98-0.21-1.93,0.42-2.14,1.4
						c-0.21,0.98,0.42,1.93,1.4,2.14C264.21,182.48,265.17,181.85,265.37,180.88z"/>
					<path class="st25" d="M259.09,190.77c0.21-0.98-0.42-1.93-1.4-2.14c-0.98-0.21-1.93,0.42-2.14,1.4
						c-0.21,0.98,0.42,1.93,1.4,2.14C257.93,192.37,258.88,191.75,259.09,190.77z"/>
					<path class="st25" d="M272.49,174.04c0.21-0.98-0.42-1.93-1.4-2.14c-0.98-0.21-1.93,0.42-2.14,1.4
						c-0.21,0.98,0.42,1.93,1.4,2.14C271.33,175.65,272.29,175.02,272.49,174.04z"/>
					<path class="st25" d="M257.47,212.21c-0.64-0.77-1.78-0.87-2.54-0.23c-0.77,0.64-0.87,1.78-0.23,2.54
						c0.64,0.77,1.78,0.87,2.54,0.23C258,214.12,258.11,212.98,257.47,212.21z"/>
					<path class="st25" d="M261.33,223.27c-0.64-0.77-1.78-0.87-2.54-0.23c-0.77,0.64-0.87,1.78-0.23,2.54
						c0.64,0.77,1.78,0.87,2.54,0.23C261.87,225.18,261.97,224.04,261.33,223.27z"/>
					<path class="st25" d="M256.74,200.63c-0.64-0.77-1.78-0.87-2.54-0.23c-0.77,0.64-0.87,1.78-0.23,2.54s1.78,0.87,2.54,0.23
						C257.27,202.53,257.37,201.4,256.74,200.63z"/>
					<path class="st25" d="M276.45,237.93c-1,0.03-1.78,0.87-1.75,1.86c0.03,1,0.87,1.78,1.86,1.75c1-0.03,1.78-0.87,1.75-1.86
						C278.28,238.68,277.44,237.9,276.45,237.93z"/>
					<path class="st25" d="M287.55,241.69c-1,0.03-1.78,0.87-1.75,1.86c0.03,1,0.87,1.78,1.86,1.75c1-0.03,1.78-0.87,1.75-1.86
						C289.38,242.44,288.55,241.66,287.55,241.69z"/>
					<path class="st25" d="M266.86,231.39c-1,0.03-1.78,0.87-1.75,1.86c0.03,1,0.87,1.78,1.86,1.75c1-0.03,1.78-0.87,1.75-1.86
						C268.7,232.14,267.86,231.36,266.86,231.39z"/>
					<path class="st25" d="M308.63,238.56c-0.59,0.8-0.42,1.93,0.38,2.53c0.8,0.59,1.93,0.42,2.53-0.38
						c0.59-0.8,0.42-1.93-0.38-2.53C310.36,237.59,309.22,237.76,308.63,238.56z"/>
					<path class="st25" d="M317.9,232.27c-0.59,0.8-0.42,1.93,0.38,2.53c0.8,0.59,1.93,0.42,2.53-0.38c0.59-0.8,0.42-1.93-0.38-2.53
						C319.62,231.3,318.49,231.47,317.9,232.27z"/>
					<path class="st25" d="M297.68,241.64c-0.59,0.8-0.42,1.93,0.38,2.53c0.8,0.59,1.93,0.42,2.53-0.38
						c0.59-0.8,0.42-1.93-0.38-2.53C299.41,240.67,298.28,240.84,297.68,241.64z"/>
					<path class="st25" d="M327.52,214.19c0.24,0.97,1.22,1.56,2.19,1.32c0.97-0.24,1.56-1.22,1.32-2.19
						c-0.24-0.97-1.22-1.56-2.19-1.32C327.87,212.25,327.28,213.23,327.52,214.19z"/>
					<path class="st25" d="M328.73,203.46c0.24,0.97,1.22,1.56,2.19,1.32c0.97-0.24,1.56-1.22,1.32-2.19
						c-0.24-0.97-1.22-1.56-2.19-1.32C329.08,201.51,328.49,202.49,328.73,203.46z"/>
					<path class="st25" d="M323.84,224.93c0.24,0.97,1.22,1.56,2.19,1.32c0.97-0.24,1.56-1.22,1.32-2.19
						c-0.24-0.97-1.22-1.56-2.19-1.32C324.19,222.98,323.6,223.96,323.84,224.93z"/>
					<path class="st25" d="M322.51,183.67c0.91,0.41,1.98,0,2.39-0.91c0.41-0.91,0-1.98-0.91-2.39c-0.91-0.41-1.98,0-2.39,0.91
						C321.19,182.2,321.6,183.27,322.51,183.67z"/>
					<path class="st25" d="M314.3,175.52c0.91,0.41,1.98,0,2.39-0.91c0.41-0.91,0-1.98-0.91-2.39c-0.91-0.41-1.98,0-2.39,0.91
						C312.98,174.04,313.39,175.11,314.3,175.52z"/>
					<path class="st25" d="M327.3,193.74c0.91,0.41,1.98,0,2.39-0.91c0.41-0.91,0-1.98-0.91-2.39c-0.91-0.41-1.98,0-2.39,0.91
						C325.98,192.27,326.39,193.34,327.3,193.74z"/>
					
						<ellipse transform="matrix(0.2632 -0.9647 0.9647 0.2632 54.0559 405.1887)" class="st25" cx="292.29" cy="167.21" rx="1.81" ry="1.81"/>
					<path class="st25" d="M281.92,170.77c0.88-0.46,1.23-1.55,0.76-2.44c-0.46-0.88-1.55-1.23-2.44-0.76
						c-0.88,0.46-1.23,1.55-0.76,2.44C279.94,170.89,281.04,171.23,281.92,170.77z"/>
					
						<ellipse transform="matrix(0.4008 -0.9162 0.9162 0.4008 27.4425 379.6776)" class="st25" cx="303.99" cy="168.86" rx="1.81" ry="1.81"/>
				</g>
				<g>
					<path class="st19" d="M264.99,180.5c0.21-0.98-0.42-1.93-1.4-2.14c-0.98-0.21-1.93,0.42-2.14,1.4
						c-0.21,0.98,0.42,1.93,1.4,2.14C263.83,182.1,264.79,181.47,264.99,180.5z"/>
					<path class="st19" d="M258.71,190.39c0.21-0.98-0.42-1.93-1.4-2.14c-0.98-0.21-1.93,0.42-2.14,1.4
						c-0.21,0.98,0.42,1.93,1.4,2.14C257.55,191.99,258.5,191.37,258.71,190.39z"/>
					<path class="st19" d="M272.11,173.66c0.21-0.98-0.42-1.93-1.4-2.14c-0.98-0.21-1.93,0.42-2.14,1.4
						c-0.21,0.98,0.42,1.93,1.4,2.14C270.95,175.27,271.91,174.64,272.11,173.66z"/>
					<path class="st19" d="M257.09,211.83c-0.64-0.77-1.78-0.87-2.54-0.23s-0.87,1.78-0.23,2.54c0.64,0.77,1.78,0.87,2.54,0.23
						C257.62,213.74,257.73,212.6,257.09,211.83z"/>
					<path class="st19" d="M260.95,222.89c-0.64-0.77-1.78-0.87-2.54-0.23c-0.77,0.64-0.87,1.78-0.23,2.54s1.78,0.87,2.54,0.23
						C261.49,224.8,261.59,223.66,260.95,222.89z"/>
					<path class="st19" d="M256.36,200.25c-0.64-0.77-1.78-0.87-2.54-0.23s-0.87,1.78-0.23,2.54c0.64,0.77,1.78,0.87,2.54,0.23
						C256.89,202.15,256.99,201.02,256.36,200.25z"/>
					<path class="st19" d="M276.07,237.55c-1,0.03-1.78,0.87-1.75,1.86c0.03,1,0.87,1.78,1.86,1.75c1-0.03,1.78-0.87,1.75-1.86
						C277.9,238.3,277.06,237.52,276.07,237.55z"/>
					<path class="st19" d="M287.17,241.31c-1,0.03-1.78,0.87-1.75,1.86c0.03,1,0.87,1.78,1.86,1.75c1-0.03,1.78-0.87,1.75-1.86
						C289,242.06,288.17,241.28,287.17,241.31z"/>
					<path class="st19" d="M266.48,231.01c-1,0.03-1.78,0.87-1.75,1.86c0.03,1,0.87,1.78,1.86,1.75c1-0.03,1.78-0.87,1.75-1.86
						C268.32,231.76,267.48,230.98,266.48,231.01z"/>
					<path class="st19" d="M308.25,238.18c-0.59,0.8-0.42,1.93,0.38,2.53c0.8,0.59,1.93,0.42,2.53-0.38
						c0.59-0.8,0.42-1.93-0.38-2.53C309.98,237.21,308.84,237.38,308.25,238.18z"/>
					<path class="st19" d="M317.52,231.89c-0.59,0.8-0.42,1.93,0.38,2.53c0.8,0.59,1.93,0.42,2.53-0.38
						c0.59-0.8,0.42-1.93-0.38-2.53C319.24,230.92,318.11,231.09,317.52,231.89z"/>
					<path class="st19" d="M297.3,241.26c-0.59,0.8-0.42,1.93,0.38,2.53c0.8,0.59,1.93,0.42,2.53-0.38c0.59-0.8,0.42-1.93-0.38-2.53
						C299.03,240.29,297.9,240.46,297.3,241.26z"/>
					<path class="st19" d="M327.14,213.81c0.24,0.97,1.22,1.56,2.19,1.32c0.97-0.24,1.56-1.22,1.32-2.19
						c-0.24-0.97-1.22-1.56-2.19-1.32C327.49,211.87,326.9,212.85,327.14,213.81z"/>
					<path class="st19" d="M328.35,203.08c0.24,0.97,1.22,1.56,2.19,1.32c0.97-0.24,1.56-1.22,1.32-2.19
						c-0.24-0.97-1.22-1.56-2.19-1.32S328.11,202.11,328.35,203.08z"/>
					<path class="st19" d="M323.46,224.55c0.24,0.97,1.22,1.56,2.19,1.32c0.97-0.24,1.56-1.22,1.32-2.19
						c-0.24-0.97-1.22-1.56-2.19-1.32C323.81,222.6,323.22,223.58,323.46,224.55z"/>
					<path class="st19" d="M322.13,183.29c0.91,0.41,1.98,0,2.39-0.91c0.41-0.91,0-1.98-0.91-2.39c-0.91-0.41-1.98,0-2.39,0.91
						C320.81,181.82,321.22,182.89,322.13,183.29z"/>
					
						<ellipse transform="matrix(0.4425 -0.8968 0.8968 0.4425 19.8573 378.9106)" class="st19" cx="314.66" cy="173.49" rx="1.81" ry="1.81"/>
					<path class="st19" d="M326.92,193.37c0.91,0.41,1.98,0,2.39-0.91c0.41-0.91,0-1.98-0.91-2.39c-0.91-0.41-1.98,0-2.39,0.91
						C325.6,191.89,326.01,192.96,326.92,193.37z"/>
					
						<ellipse transform="matrix(0.2632 -0.9647 0.9647 0.2632 54.1337 404.5332)" class="st19" cx="291.91" cy="166.83" rx="1.81" ry="1.81"/>
					<path class="st19" d="M281.54,170.39c0.88-0.46,1.23-1.55,0.76-2.44c-0.46-0.88-1.55-1.23-2.44-0.76
						c-0.88,0.46-1.23,1.55-0.76,2.44C279.56,170.51,280.66,170.85,281.54,170.39z"/>
					
						<ellipse transform="matrix(0.4008 -0.9162 0.9162 0.4008 27.5767 379.1199)" class="st19" cx="303.61" cy="168.48" rx="1.81" ry="1.81"/>
				</g>
				<g>
					
						<rect x="261.54" y="179.94" transform="matrix(0.7071 -0.7071 0.7071 0.7071 -50.2714 238.8841)" class="st26" width="3.37" height="0.36"/>
					
						<rect x="255.26" y="189.84" transform="matrix(0.7071 -0.7071 0.7071 0.7071 -59.1068 237.3404)" class="st26" width="3.37" height="0.36"/>
					
						<rect x="268.66" y="173.11" transform="matrix(0.7071 -0.7071 0.7071 0.7071 -43.3546 241.9173)" class="st26" width="3.37" height="0.36"/>
					
						<rect x="254.02" y="212.8" transform="matrix(0.7071 -0.7071 0.7071 0.7071 -75.7103 243.1905)" class="st26" width="3.37" height="0.36"/>
					
						<rect x="257.88" y="223.87" transform="matrix(0.7071 -0.7071 0.7071 0.7071 -82.4022 249.1561)" class="st26" width="3.37" height="0.36"/>
					
						<rect x="253.28" y="201.22" transform="matrix(0.7071 -0.7071 0.7071 0.7071 -67.7365 239.2796)" class="st26" width="3.37" height="0.36"/>
					
						<rect x="274.44" y="239.18" transform="matrix(0.7071 -0.7071 0.7071 0.7071 -88.3766 265.3566)" class="st26" width="3.37" height="0.36"/>
					
						<rect x="285.54" y="242.93" transform="matrix(0.7071 -0.7071 0.7071 0.7071 -87.7816 274.3062)" class="st26" width="3.37" height="0.36"/>
					
						<rect x="264.86" y="232.63" transform="matrix(0.7071 -0.7071 0.7071 0.7071 -86.557 256.6638)" class="st26" width="3.37" height="0.36"/>
					
						<rect x="308.02" y="239.08" transform="matrix(0.7071 -0.7071 0.7071 0.7071 -78.4708 289.0695)" class="st26" width="3.37" height="0.36"/>
					
						<rect x="317.29" y="232.79" transform="matrix(0.7071 -0.7071 0.7071 0.7071 -71.309 293.7733)" class="st26" width="3.37" height="0.36"/>
					
						<rect x="297.07" y="242.15" transform="matrix(0.7071 -0.7071 0.7071 0.7071 -83.852 282.2301)" class="st26" width="3.37" height="0.36"/>
					
						<rect x="327.2" y="213.2" transform="matrix(0.7071 -0.7071 0.7071 0.7071 -54.5538 295.0587)" class="st26" width="3.37" height="0.36"/>
					
						<rect x="328.42" y="202.47" transform="matrix(0.7071 -0.7071 0.7071 0.7071 -46.6087 292.7742)" class="st26" width="3.37" height="0.36"/>
					
						<rect x="323.52" y="223.93" transform="matrix(0.7071 -0.7071 0.7071 0.7071 -63.2191 295.6078)" class="st26" width="3.37" height="0.36"/>
					
						<rect x="321.18" y="181.46" transform="matrix(0.7071 -0.7071 0.7071 0.7071 -33.876 281.5011)" class="st26" width="3.37" height="0.36"/>
					
						<rect x="312.97" y="173.3" transform="matrix(0.7071 -0.7071 0.7071 0.7071 -30.511 273.3109)" class="st26" width="3.37" height="0.36"/>
					
						<rect x="325.97" y="191.53" transform="matrix(0.7071 -0.7071 0.7071 0.7071 -39.5935 287.8435)" class="st26" width="3.37" height="0.36"/>
					
						<rect x="290.22" y="166.65" transform="matrix(0.7071 -0.7071 0.7071 0.7071 -32.465 255.2743)" class="st26" width="3.37" height="0.36"/>
					
						<rect x="279.02" y="168.61" transform="matrix(0.7071 -0.7071 0.7071 0.7071 -37.1342 247.9244)" class="st26" width="3.37" height="0.36"/>
					
						<rect x="301.92" y="168.3" transform="matrix(0.7071 -0.7071 0.7071 0.7071 -30.2086 264.0279)" class="st26" width="3.37" height="0.36"/>
				</g>
			</g>
		</g>
		<path class="st6" d="M402.93,94.5c0,0-9.86-8.07-51.43-1.32c-43.91,7.12-71.78,34.12-90.76,52.88
			c-24.55,24.28-65.05,80.16-84.19,127.72l0,0C176.56,273.78,264.91,88.42,402.93,94.5z"/>
		<polygon class="st6" points="181.62,278.69 177.24,282.99 175.71,281.49 180.02,277.16 		"/>
		<g class="st27">
			<defs>
				<path id="SVGID_23_" class="st27" d="M404.69,145.8c6.41-41.53-1.76-51.3-1.76-51.3s-9.86-8.07-51.43-1.32
					c-43.91,7.12-71.78,34.12-90.76,52.88c-19.59,19.37-49.33,58.86-70.27,98.19c-5.31,9.96-10.05,19.92-13.92,29.53l24.43,23.92
					l24.18,24.17c47.51-19.5,103.16-60.37,127.29-85.07C371.1,217.7,397.93,189.67,404.69,145.8z"/>
			</defs>
			<clipPath id="SVGID_24_">
				<use xlink:href="#SVGID_23_"  style="overflow:visible;"/>
			</clipPath>
			<linearGradient id="SVGID_25_" gradientUnits="userSpaceOnUse" x1="452.4097" y1="295.3249" x2="307.9954" y2="205.1447">
				<stop  offset="0" style="stop-color:#1D262D"/>
				<stop  offset="1" style="stop-color:#1D262D;stop-opacity:0"/>
			</linearGradient>
			<path class="st28" d="M225.16,321.86c0,0,176.27-89.33,177.77-227.37l49.75,21.83L288.05,369.84
				C288.05,369.84,254.86,357.38,225.16,321.86z"/>
		</g>
		<linearGradient id="SVGID_26_" gradientUnits="userSpaceOnUse" x1="245.784" y1="289.8139" x2="260.7313" y2="323.2996">
			<stop  offset="0" style="stop-color:#1D262D"/>
			<stop  offset="1" style="stop-color:#1D262D;stop-opacity:0"/>
		</linearGradient>
		<path class="st29" d="M225.16,321.86l3.48,12.66c0,0,33.9-16.71,54.68-43.73l0,0C283.32,290.8,245.8,313.3,225.16,321.86z"/>
		<path class="st6" d="M209.81,372.68c10.42-10.21,14.33-20.07,15.01-21.95c-0.16,0.4-0.51,1.17-1.27,2.46
			c-2.32,4.27-5.77,8.9-10.68,14.34c-6.26,6.93-15.33,16.13-16.66,20.11c-0.25,0.84-0.12,1.39,0.26,1.73c0,0,0,0,0.01,0.01
			C196.48,389.34,198.24,384.01,209.81,372.68z"/>
	</g>
</g>
<g id="DESIGNED_BY_FREEPIK">
</g>
</svg>
