<svg width="132" height="132" viewBox="0 0 132 132" fill="none" xmlns="http://www.w3.org/2000/svg">
<path fill-rule="evenodd" clip-rule="evenodd" d="M3.14754 86.2074C3.68306 87.8754 4.28312 89.5144 4.94479 91.1216L105.836 13.3644C104.448 12.3123 103.017 11.3139 101.545 10.3722L3.14754 86.2074ZM10.0605 101.053C9.16976 99.6344 8.33152 98.179 7.5485 96.6901L110.559 17.3C111.798 18.4336 112.993 19.6137 114.142 20.8378L10.0605 101.053ZM13.4822 105.991C14.4921 107.316 15.5509 108.602 16.656 109.845L120.975 29.446C120.051 28.0593 119.076 26.7096 118.052 25.3996L13.4822 105.991ZM24.7141 117.509C23.3899 116.446 22.1076 115.333 20.87 114.172L124.091 34.6194C124.898 36.1079 125.648 37.6309 126.34 39.1855L24.7141 117.509ZM29.7685 121.189C31.2578 122.169 32.7892 123.09 34.3594 123.95L130.103 50.1601C129.673 48.4159 129.174 46.699 128.609 45.0125L29.7685 121.189ZM45.9283 128.908C44.0484 128.309 42.205 127.627 40.4025 126.868L131.375 56.7553C131.646 58.6861 131.833 60.6438 131.933 62.6244L45.9283 128.908ZM53.3064 130.797C55.5718 131.239 57.8786 131.564 60.2204 131.768L131.081 77.1555C131.467 74.8865 131.737 72.5781 131.885 70.2365L53.3064 130.797ZM79.7587 130.584C76.5423 131.266 73.2393 131.713 69.8684 131.907L128.773 86.5096C127.73 89.7048 126.45 92.7929 124.953 95.7528L79.7587 130.584ZM99.7331 122.765C104.282 120.056 108.478 116.816 112.235 113.13L99.7331 122.765ZM95.9063 7.14299C94.2343 6.29212 92.5212 5.51039 90.7708 4.80156L0.522693 74.3559C0.76021 76.2382 1.077 78.0959 1.4696 79.9254L95.9063 7.14299ZM77.667 1.02621C79.8037 1.40697 81.9048 1.89053 83.9651 2.4716L0.0101027 67.1758C0.0033768 66.7877 0 66.3988 0 66.0091C0 64.2299 0.0703909 62.4671 0.20854 60.7235L77.667 1.02621ZM69.0786 0.0701042C68.0613 0.0235378 67.0379 0 66.0091 0C64.2306 0 62.4686 0.0703319 60.7257 0.208366L3.70345 44.1554C2.78868 46.7636 2.03304 49.4467 1.44819 52.1929L69.0786 0.0701042ZM9.23331 32.3184C17.7495 17.9977 31.5298 7.17328 47.9061 2.51325L9.23331 32.3184Z" fill="#F9C032"/>
</svg>
