<svg width="86" height="86" viewBox="0 0 86 86" fill="none" xmlns="http://www.w3.org/2000/svg">
<path d="M86 43C86 66.8 66.7 86 43 86C19.2 86 0 66.7 0 43C0 19.2 19.3 0 43 0C66.7 0 86 19.3 86 43Z" fill="url(#paint0_linear_2367_531)"/>
<path d="M70.2004 26.5001C68.5004 27.3001 66.1004 27.7001 64.3004 28.0001C65.2004 27.9001 66.2004 26.3001 66.7004 25.7001C67.5004 24.7001 68.0004 23.6001 68.3004 22.5001C68.3004 22.4001 68.3004 22.3001 68.2004 22.2001C68.1004 22.2001 68.0004 22.2001 67.9004 22.2001C65.9004 23.3001 63.8004 24.1001 61.5004 24.6001C61.3004 24.6001 61.2004 24.6001 61.1004 24.5001C60.9004 24.3001 60.7004 24.1001 60.5004 23.9001C59.6004 23.1001 58.5004 22.5001 57.4004 22.0001C55.9004 21.4001 54.3004 21.1001 52.7004 21.2001C51.1004 21.3001 49.6004 21.7001 48.2004 22.5001C46.8004 23.2001 45.6004 24.2001 44.6004 25.5001C43.6004 26.8001 42.8004 28.2001 42.4004 29.8001C42.0004 31.3001 42.1004 32.8001 42.3004 34.4001C42.3004 34.7001 42.3004 34.7001 42.1004 34.7001C33.4004 33.4001 26.1004 30.3001 20.3004 23.6001C20.0004 23.3001 19.9004 23.3001 19.7004 23.6001C17.1004 27.5001 18.4004 33.6001 21.6004 36.7001C22.0004 37.1001 22.5004 37.5001 22.9004 37.9001C22.7004 37.9001 20.6004 37.7001 18.7004 36.7001C18.4004 36.5001 18.3004 36.6001 18.3004 36.9001C18.3004 37.3001 18.3004 37.7001 18.4004 38.2001C18.9004 42.1001 21.6004 45.7001 25.3004 47.1001C25.7004 47.3001 26.2004 47.4001 26.7004 47.5001C25.9004 47.7001 25.0004 47.8001 22.6004 47.6001C22.3004 47.5001 22.2004 47.7001 22.3004 48.0001C24.1004 53.0001 28.0004 54.4001 31.0004 55.3001C31.4004 55.4001 31.8004 55.4001 32.2004 55.5001C32.2004 55.5001 32.2004 55.5001 32.1004 55.6001C31.1004 57.1001 27.7004 58.2001 26.2004 58.7001C23.3004 59.7001 20.2004 60.2001 17.2004 59.9001C16.7004 59.8001 16.6004 59.8001 16.5004 59.9001C16.4004 60.0001 16.5004 60.1001 16.6004 60.2001C17.2004 60.6001 17.8004 61.0001 18.5004 61.3001C20.4004 62.3001 22.4004 63.1001 24.5004 63.7001C35.3004 66.7001 47.5004 64.5001 55.6004 56.4001C62.0004 50.1001 64.2004 41.3001 64.2004 32.6001C64.2004 32.3001 64.6004 32.1001 64.8004 31.9001C66.5004 30.7001 68.9004 29.2001 70.1004 27.5001C70.4004 27.1001 71.4004 26.8001 71.4004 26.7001C71.5004 26.3001 70.4004 26.4001 70.2004 26.5001Z" fill="white"/>
<path fill-rule="evenodd" clip-rule="evenodd" d="M33.2002 65C34.2002 65 33.2002 64.9 33.2002 65Z" fill="white"/>
<defs>
<linearGradient id="paint0_linear_2367_531" x1="12.5671" y1="12.6294" x2="73.4032" y2="73.4656" gradientUnits="userSpaceOnUse">
<stop offset="0.1697" stop-color="#33CCFF"/>
<stop offset="0.9975" stop-color="#3E68DD"/>
</linearGradient>
</defs>
</svg>
