<svg width="50" height="50" viewBox="0 0 50 50" fill="none" xmlns="http://www.w3.org/2000/svg">
<circle cx="25" cy="25" r="25" fill="#F9C032"/>
<path d="M25.4993 10.918C17.445 10.918 10.916 17.4469 10.916 25.5013C10.916 33.5557 17.445 40.0846 25.4993 40.0846C33.5537 40.0846 40.0827 33.5557 40.0827 25.5013C40.0827 17.4469 33.5537 10.918 25.4993 10.918Z" stroke="white" stroke-width="1.5" stroke-linecap="round" stroke-linejoin="round"/>
<path d="M19.666 38.8726V28.4193L25.4993 18.2109L31.3327 28.4193V38.8726" stroke="white" stroke-width="1.5" stroke-linecap="round" stroke-linejoin="round"/>
<path d="M19.666 28.418C19.666 28.418 21.3096 29.8763 22.5827 29.8763C23.8558 29.8763 25.4993 28.418 25.4993 28.418C25.4993 28.418 27.1429 29.8763 28.416 29.8763C29.6891 29.8763 31.3327 28.418 31.3327 28.418" stroke="white" stroke-width="1.5" stroke-linecap="round" stroke-linejoin="round"/>
</svg>
