<svg width="101" height="132" viewBox="0 0 101 132" fill="none" xmlns="http://www.w3.org/2000/svg">
<path fill-rule="evenodd" clip-rule="evenodd" d="M-27.8525 86.2074C-27.3169 87.8754 -26.7169 89.5144 -26.0552 91.1216L74.8364 13.3644C73.4479 12.3123 72.0165 11.3139 70.5453 10.3722L-27.8525 86.2074ZM-20.9395 101.053C-21.8302 99.6344 -22.6685 98.179 -23.4515 96.6901L79.5588 17.3C80.7975 18.4336 81.9928 19.6137 83.142 20.8378L-20.9395 101.053ZM-17.5178 105.991C-16.5079 107.316 -15.4491 108.602 -14.344 109.845L89.9752 29.446C89.0509 28.0593 88.0756 26.7096 87.0519 25.3996L-17.5178 105.991ZM-6.28588 117.509C-7.61008 116.446 -8.8924 115.333 -10.13 114.172L93.0915 34.6194C93.8976 36.1079 94.6482 37.6309 95.3404 39.1855L-6.28588 117.509ZM-1.23153 121.189C0.257822 122.169 1.78922 123.09 3.35938 123.95L99.1031 50.1601C98.6733 48.4159 98.1741 46.699 97.6087 45.0125L-1.23153 121.189ZM14.9283 128.908C13.0484 128.309 11.205 127.627 9.40249 126.868L100.375 56.7553C100.646 58.6861 100.833 60.6438 100.933 62.6244L14.9283 128.908ZM22.3064 130.797C24.5718 131.239 26.8786 131.564 29.2204 131.768L100.081 77.1555C100.467 74.8865 100.737 72.5781 100.885 70.2365L22.3064 130.797ZM48.7587 130.584C45.5423 131.266 42.2393 131.713 38.8684 131.907L97.7728 86.5096C96.7298 89.7048 95.4496 92.7929 93.953 95.7528L48.7587 130.584ZM68.7331 122.765C73.2823 120.056 77.4782 116.816 81.2351 113.13L68.7331 122.765ZM64.9063 7.14299C63.2343 6.29212 61.5212 5.51039 59.7708 4.80156L-30.4773 74.3559C-30.2398 76.2382 -29.923 78.0959 -29.5304 79.9254L64.9063 7.14299ZM46.667 1.02621C48.8037 1.40697 50.9048 1.89053 52.9651 2.4716L-30.9899 67.1758C-30.9966 66.7877 -31 66.3988 -31 66.0091C-31 64.2299 -30.9296 62.4671 -30.7915 60.7235L46.667 1.02621ZM38.0786 0.0701042C37.0613 0.0235378 36.0379 0 35.0091 0C33.2306 0 31.4686 0.0703319 29.7257 0.208366L-27.2965 44.1554C-28.2113 46.7636 -28.967 49.4467 -29.5518 52.1929L38.0786 0.0701042ZM-21.7667 32.3184C-13.2505 17.9977 0.529818 7.17328 16.9061 2.51325L-21.7667 32.3184Z" fill="#F9C032"/>
</svg>
