<svg width="147" height="200" viewBox="0 0 147 200" fill="none" xmlns="http://www.w3.org/2000/svg">
<path fill-rule="evenodd" clip-rule="evenodd" d="M3.81055 127.434C4.8418 131.059 6.07422 134.598 7.49219 138.043L160.336 20.2461C158.727 19.0273 157.078 17.8555 155.395 16.7344C153.963 15.7812 152.506 14.8633 151.025 13.9805L3.81055 127.434ZM15.2422 153.09C13.3379 150.059 11.5938 146.914 10.0176 143.672L165.137 24.1211C167.861 26.4648 170.459 28.9492 172.918 31.5664L15.2422 153.09ZM18.5918 158.082C20.6602 160.977 22.8789 163.754 25.2363 166.406L183.27 44.6094C181.297 41.6484 179.17 38.8008 176.902 36.0742L18.5918 158.082ZM31.7344 173.07L30.7461 172.133C30.2852 171.691 29.8281 171.246 29.375 170.793L186.461 49.7266C188.273 52.8359 189.922 56.0508 191.396 59.3633L37.4414 178.02C35.4766 176.441 33.5723 174.789 31.7344 173.07ZM42.4141 181.762C43.625 182.617 44.8555 183.445 46.1055 184.246C48.0449 185.484 50.0273 186.664 52.0547 187.773L197.098 75.9922C196.498 73.5586 195.809 71.1562 195.033 68.7969C194.629 67.5625 194.201 66.3398 193.75 65.1289L42.4141 181.762ZM69.5801 195.289C65.6055 194.02 61.7363 192.508 57.9941 190.773L198.475 82.5039C199.188 86.5469 199.658 90.6758 199.871 94.8711L69.5801 195.289ZM76.8047 197.297C81.4922 198.41 86.3105 199.195 91.2285 199.621L198.58 116.887C199.385 112.152 199.857 107.305 199.973 102.371L76.8047 197.297ZM120.826 197.828C114.287 199.215 107.514 199.961 100.57 200L196.588 126C194.801 132.652 192.346 139.031 189.299 145.059L120.826 197.828ZM137.021 192.926C154.404 185.996 169.387 174.324 180.371 159.516L137.021 192.926ZM145.293 10.8203C141.693 8.98828 137.969 7.36719 134.135 5.97656L0.404297 109.043C0.771484 113.133 1.38281 117.148 2.22656 121.082L145.293 10.8203ZM122.512 2.54688C124.09 2.91016 125.652 3.30859 127.201 3.74609L0.015625 101.77L0 100C0 95.8594 0.251953 91.7734 0.740234 87.7617L113.453 0.898438C116.52 1.3125 119.541 1.86328 122.512 2.54688ZM103.715 0.0664062L102.611 0.0351562C101.744 0.0117188 100.873 0 100 0C95.2832 0 90.6445 0.324219 86.1016 0.957031L7.74414 61.3477C5.36914 67.0078 3.5 72.9336 2.19336 79.0703L104.65 0.105469L103.715 0.0664062ZM13.9883 48.9609C26.8906 27.2656 47.7656 10.8672 72.5762 3.80859L13.9883 48.9609Z" fill="#F9C032"/>
</svg>
