<svg width="50" height="50" viewBox="0 0 50 50" fill="none" xmlns="http://www.w3.org/2000/svg">
<circle cx="25" cy="25" r="25" fill="#20C3C5"/>
<path d="M31.8557 28.4141C31.9724 27.4516 32.0599 26.4891 32.0599 25.4974C32.0599 24.5057 31.9724 23.5432 31.8557 22.5807H36.7849C37.0182 23.5141 37.1641 24.4911 37.1641 25.4974C37.1641 26.5036 37.0182 27.4807 36.7849 28.4141M29.2745 36.5224C30.1495 34.9036 30.8203 33.1536 31.287 31.3307H35.5891C34.1762 33.7636 31.9346 35.6066 29.2745 36.5224ZM28.9099 28.4141H22.0849C21.9391 27.4516 21.8516 26.4891 21.8516 25.4974C21.8516 24.5057 21.9391 23.5286 22.0849 22.5807H28.9099C29.0411 23.5286 29.1432 24.5057 29.1432 25.4974C29.1432 26.4891 29.0411 27.4516 28.9099 28.4141ZM25.4974 37.1057C24.287 35.3557 23.3099 33.4161 22.712 31.3307H28.2828C27.6849 33.4161 26.7078 35.3557 25.4974 37.1057ZM19.6641 19.6641H15.4057C16.8041 17.2246 19.044 15.3787 21.7057 14.4724C20.8307 16.0911 20.1745 17.8411 19.6641 19.6641ZM15.4057 31.3307H19.6641C20.1745 33.1536 20.8307 34.9036 21.7057 36.5224C19.0496 35.6061 16.8128 33.7628 15.4057 31.3307ZM14.2099 28.4141C13.9766 27.4807 13.8307 26.5036 13.8307 25.4974C13.8307 24.4911 13.9766 23.5141 14.2099 22.5807H19.1391C19.0224 23.5432 18.9349 24.5057 18.9349 25.4974C18.9349 26.4891 19.0224 27.4516 19.1391 28.4141M25.4974 13.8745C26.7078 15.6245 27.6849 17.5786 28.2828 19.6641H22.712C23.3099 17.5786 24.287 15.6245 25.4974 13.8745ZM35.5891 19.6641H31.287C30.8306 17.8579 30.1547 16.1143 29.2745 14.4724C31.9578 15.3911 34.1891 17.2432 35.5891 19.6641ZM25.4974 10.9141C17.4328 10.9141 10.9141 17.4766 10.9141 25.4974C10.9141 29.3651 12.4505 33.0745 15.1854 35.8094C16.5396 37.1636 18.1473 38.2378 19.9166 38.9706C21.6859 39.7035 23.5823 40.0807 25.4974 40.0807C29.3651 40.0807 33.0745 38.5443 35.8094 35.8094C38.5443 33.0745 40.0807 29.3651 40.0807 25.4974C40.0807 23.5823 39.7035 21.6859 38.9706 19.9166C38.2378 18.1473 37.1636 16.5396 35.8094 15.1854C34.4552 13.8312 32.8475 12.757 31.0782 12.0242C29.3089 11.2913 27.4125 10.9141 25.4974 10.9141Z" fill="white"/>
</svg>
