<svg width="347" height="370" viewBox="0 0 347 370" fill="none" xmlns="http://www.w3.org/2000/svg">
<path d="M337.534 171.961C314.194 206.911 264.374 315.001 276.634 355.111L97.9244 355.151C97.9244 355.151 72.1044 335.921 47.0144 302.501C42.4544 296.431 37.9244 289.881 33.5744 282.901C28.9544 275.501 24.5544 267.611 20.5544 259.261C8.92436 235.051 0.624365 206.991 0.284365 175.981C-0.885635 68.6315 92.0244 -31.1385 218.424 9.12147C344.824 49.3815 360.864 137.011 337.534 171.961Z" fill="#EAF9F8"/>
<path d="M225.716 356.378C225.356 356.378 225.006 356.218 224.756 355.918L129.456 237.428C129.036 236.898 129.116 236.128 129.646 235.698C130.176 235.278 130.946 235.358 131.376 235.888L226.676 354.378C227.106 354.908 227.016 355.678 226.486 356.108C226.266 356.288 225.986 356.378 225.716 356.378Z" fill="#E03C03"/>
<path d="M77.8847 356.378C77.6147 356.378 77.3447 356.288 77.1147 356.108C76.5847 355.678 76.5047 354.908 76.9247 354.378L172.225 235.888C172.655 235.358 173.425 235.278 173.955 235.698C174.485 236.128 174.565 236.898 174.145 237.428L78.8447 355.918C78.6047 356.218 78.2447 356.378 77.8847 356.378Z" fill="#FF6224"/>
<path d="M173.185 356.378C172.825 356.378 172.475 356.218 172.225 355.918L76.9247 237.428C76.5047 236.898 76.5847 236.128 77.1147 235.698C77.6447 235.278 78.4147 235.358 78.8447 235.888L174.145 354.378C174.575 354.908 174.485 355.678 173.955 356.108C173.735 356.288 173.465 356.378 173.185 356.378Z" fill="#FF6224"/>
<path d="M94.7738 239.8H50.4938C48.7538 239.8 47.3438 238.39 47.3438 236.65C47.3438 234.91 48.7538 233.5 50.4938 233.5H94.7738C96.5138 233.5 97.9237 234.91 97.9237 236.65C97.9137 238.39 96.5138 239.8 94.7738 239.8Z" fill="#E03C03"/>
<path d="M222.161 239.8H95.6109C93.8709 239.8 92.4609 238.39 92.4609 236.65C92.4609 234.91 93.8709 233.5 95.6109 233.5H222.161V239.8Z" fill="#FF6224"/>
<path d="M128.974 295.901C128.974 297.801 127.434 299.341 125.534 299.341C123.634 299.341 122.094 297.801 122.094 295.901C122.094 294.001 123.634 292.461 125.534 292.461C127.434 292.471 128.974 294.011 128.974 295.901Z" fill="#E03C03"/>
<path d="M181.505 295.901C181.505 297.801 179.965 299.341 178.065 299.341C176.165 299.341 174.625 297.801 174.625 295.901C174.625 294.001 176.165 292.461 178.065 292.461C179.965 292.471 181.505 294.011 181.505 295.901Z" fill="#FFC947"/>
<path d="M135.78 139.595H91.1697C88.9697 139.595 87.1797 137.805 87.1797 135.605V102.435C87.1797 100.235 88.9697 98.4453 91.1697 98.4453H135.78C137.98 98.4453 139.77 100.235 139.77 102.435V135.605C139.77 137.815 137.98 139.595 135.78 139.595Z" fill="#20C3C5"/>
<path d="M124.88 116.617H123.23C122.98 115.717 122.6 114.857 122.12 114.077L123.39 112.807C123.88 112.317 123.88 111.537 123.39 111.047L121.6 109.257C121.11 108.767 120.33 108.767 119.84 109.257L118.49 110.607C117.74 110.187 116.94 109.857 116.09 109.637V107.607C116.09 106.917 115.53 106.367 114.85 106.367H112.31C111.62 106.367 111.07 106.927 111.07 107.607V109.657C110.25 109.867 109.47 110.177 108.74 110.577L107.25 109.087C106.76 108.597 105.98 108.597 105.49 109.087L103.7 110.877C103.21 111.367 103.21 112.147 103.7 112.637L105.08 114.017C104.62 114.747 104.26 115.547 104 116.387H102.06C101.37 116.387 100.82 116.947 100.82 117.627V120.167C100.82 120.857 101.38 121.407 102.06 121.407H103.76C103.95 122.347 104.27 123.237 104.71 124.067L103.55 125.227C103.06 125.717 103.06 126.497 103.55 126.987L105.34 128.777C105.83 129.267 106.61 129.267 107.1 128.777L108.11 127.767C108.95 128.317 109.87 128.737 110.85 129.007V130.417C110.85 131.107 111.41 131.657 112.09 131.657H114.63C115.32 131.657 115.87 131.097 115.87 130.417V129.107C116.89 128.867 117.84 128.477 118.71 127.957L119.68 128.927C120.17 129.417 120.95 129.417 121.44 128.927L123.23 127.137C123.72 126.647 123.72 125.867 123.23 125.377L122.24 124.387C122.73 123.537 123.1 122.617 123.33 121.627H124.87C125.56 121.627 126.11 121.067 126.11 120.387V117.847C126.13 117.177 125.57 116.617 124.88 116.617ZM114.83 125.637C110.33 126.487 106.46 122.617 107.31 118.117C107.79 115.597 109.81 113.577 112.33 113.097C116.83 112.247 120.7 116.117 119.85 120.617C119.37 123.137 117.34 125.167 114.83 125.637Z" fill="white"/>
<path d="M202.928 116.861H158.318C156.118 116.861 154.328 115.071 154.328 112.871V79.7009C154.328 77.5009 156.118 75.7109 158.318 75.7109H202.928C205.128 75.7109 206.918 77.5009 206.918 79.7009V112.871C206.918 115.081 205.138 116.861 202.928 116.861Z" fill="#FF6224"/>
<path d="M171.747 103.2C171.437 103.2 171.117 103.07 170.877 102.82L165.337 96.8897C164.857 96.3797 164.857 95.5397 165.337 95.0297L170.977 88.9997C171.457 88.4897 172.237 88.4897 172.717 88.9997C173.197 89.5097 173.197 90.3397 172.717 90.8597L167.947 95.9597L172.617 100.96C173.097 101.47 173.097 102.3 172.617 102.82C172.377 103.08 172.067 103.2 171.747 103.2Z" fill="white"/>
<path d="M189.507 103.2C189.197 103.2 188.877 103.07 188.637 102.82C188.157 102.31 188.157 101.48 188.637 100.96L193.317 95.9597L188.547 90.8597C188.067 90.3497 188.067 89.5197 188.547 88.9997C189.027 88.4897 189.807 88.4897 190.287 88.9997L195.928 95.0297C196.158 95.2797 196.287 95.6097 196.287 95.9597C196.287 96.3097 196.158 96.6397 195.928 96.8897L190.387 102.82C190.137 103.08 189.817 103.2 189.507 103.2Z" fill="white"/>
<path d="M177.88 104.832C177.73 104.832 177.57 104.802 177.42 104.732C176.79 104.462 176.49 103.692 176.75 103.022L182.25 88.5621C182.51 87.8921 183.22 87.5621 183.85 87.8421C184.48 88.1121 184.78 88.8821 184.52 89.5521L179.02 104.012C178.82 104.522 178.36 104.832 177.88 104.832Z" fill="white"/>
<path d="M243.203 124.771H132.523V121.371C132.523 120.451 133.263 119.711 134.183 119.711H241.543C242.463 119.711 243.203 120.451 243.203 121.371V124.771Z" fill="white"/>
<path d="M240.113 183.768H135.613C133.903 183.768 132.523 182.388 132.523 180.678V124.758H243.203V180.678C243.203 182.388 241.823 183.768 240.113 183.768Z" fill="#383873"/>
<path d="M237.896 122.241C237.896 122.671 237.546 123.021 237.116 123.021C236.686 123.021 236.336 122.671 236.336 122.241C236.336 121.811 236.686 121.461 237.116 121.461C237.546 121.461 237.896 121.811 237.896 122.241Z" fill="#FF6224"/>
<path d="M232.544 122.241C232.544 122.671 232.194 123.021 231.764 123.021C231.334 123.021 230.984 122.671 230.984 122.241C230.984 121.811 231.334 121.461 231.764 121.461C232.194 121.461 232.544 121.811 232.544 122.241Z" fill="#FF6224"/>
<path d="M227.193 122.241C227.193 122.671 226.843 123.021 226.413 123.021C225.983 123.021 225.633 122.671 225.633 122.241C225.633 121.811 225.983 121.461 226.413 121.461C226.843 121.461 227.193 121.811 227.193 122.241Z" fill="#FF6224"/>
<path d="M199.725 132.742H138.265C137.675 132.742 137.195 132.262 137.195 131.672C137.195 131.082 137.675 130.602 138.265 130.602H199.725C200.315 130.602 200.795 131.082 200.795 131.672C200.795 132.262 200.315 132.742 199.725 132.742Z" fill="#20C3C5"/>
<path d="M199.725 139.554H138.265C137.675 139.554 137.195 139.074 137.195 138.484C137.195 137.894 137.675 137.414 138.265 137.414H199.725C200.315 137.414 200.795 137.894 200.795 138.484C200.795 139.074 200.315 139.554 199.725 139.554Z" fill="#20C3C5"/>
<path d="M170.405 146.359H138.265C137.675 146.359 137.195 145.879 137.195 145.289C137.195 144.699 137.675 144.219 138.265 144.219H170.405C170.995 144.219 171.475 144.699 171.475 145.289C171.475 145.879 170.995 146.359 170.405 146.359Z" fill="#20C3C5"/>
<path d="M199.725 159.968H138.265C137.675 159.968 137.195 159.488 137.195 158.898C137.195 158.308 137.675 157.828 138.265 157.828H199.725C200.315 157.828 200.795 158.308 200.795 158.898C200.795 159.488 200.315 159.968 199.725 159.968Z" fill="#FF6224"/>
<path d="M170.405 166.781H138.265C137.675 166.781 137.195 166.301 137.195 165.711C137.195 165.121 137.675 164.641 138.265 164.641H170.405C170.995 164.641 171.475 165.121 171.475 165.711C171.475 166.301 170.995 166.781 170.405 166.781Z" fill="#FF6224"/>
<path d="M170.405 173.593H138.265C137.675 173.593 137.195 173.113 137.195 172.523C137.195 171.933 137.675 171.453 138.265 171.453H170.405C170.995 171.453 171.475 171.933 171.475 172.523C171.475 173.113 170.995 173.593 170.405 173.593Z" fill="#20C3C5"/>
<path d="M199.725 146.359H176.625C176.035 146.359 175.555 145.879 175.555 145.289C175.555 144.699 176.035 144.219 176.625 144.219H199.725C200.315 144.219 200.795 144.699 200.795 145.289C200.795 145.879 200.315 146.359 199.725 146.359Z" fill="white"/>
<path d="M230.225 131.067L213.895 147.397C213.475 147.817 212.795 147.817 212.385 147.397C211.965 146.977 211.965 146.297 212.385 145.887L228.715 129.557C229.135 129.137 229.815 129.137 230.225 129.557C230.645 129.977 230.645 130.647 230.225 131.067Z" fill="#FF6224"/>
<path d="M230.673 164.198C231.9 159.023 228.699 153.834 223.524 152.607C218.349 151.38 213.16 154.58 211.933 159.755C210.706 164.93 213.906 170.12 219.081 171.347C224.256 172.574 229.446 169.373 230.673 164.198Z" fill="#FF6224"/>
<path d="M220.041 168.684C220.041 171.694 217.601 174.134 214.591 174.134C211.581 174.134 209.141 171.694 209.141 168.684C209.141 165.674 211.581 163.234 214.591 163.234C217.601 163.234 220.041 165.674 220.041 168.684Z" fill="#20C3C5"/>
<path d="M132.523 177.805V197.275L150.423 179.385" fill="#383873"/>
<path d="M113.477 202.539H152.747L166.937 229.859H127.677L113.477 202.539Z" fill="#86BFBC"/>
<path d="M128.475 227.842L116.715 205.212C116.465 204.742 116.815 204.172 117.345 204.172H151.315C151.585 204.172 151.825 204.322 151.945 204.552L163.705 227.182C163.955 227.652 163.605 228.222 163.075 228.222H129.105C128.835 228.232 128.595 228.082 128.475 227.842Z" fill="white"/>
<path d="M159.472 229.859H127.672V233.509H159.472V229.859Z" fill="#B8E3E2"/>
<path d="M186.794 229.859H155.414C154.404 229.859 153.594 230.679 153.594 231.679C153.594 232.689 154.414 233.499 155.414 233.499H186.794C187.804 233.499 188.614 232.679 188.614 231.679C188.614 230.679 187.804 229.859 186.794 229.859Z" fill="#9FCCC9"/>
<path d="M127.674 229.861L113.474 202.531L112.764 203.061C112.304 203.401 112.164 204.031 112.434 204.541L127.674 233.501V229.861Z" fill="#B8E3E2"/>
<path d="M141.977 231.57H138.477V232.18H141.977V231.57Z" fill="#9FCCC9"/>
<path d="M146.375 231.57H142.875V232.18H146.375V231.57Z" fill="#9FCCC9"/>
<path d="M150.773 231.57H147.273V232.18H150.773V231.57Z" fill="#9FCCC9"/>
<path d="M199.252 283.347C199.252 283.347 166.682 308.707 161.522 315.147C159.572 317.587 156.182 321.857 152.662 326.237C146.882 333.427 140.752 340.927 140.022 341.107C138.862 341.397 129.092 333.957 128.792 332.357C128.612 331.357 137.512 316.087 145.212 303.807C149.902 296.347 154.142 289.977 155.632 288.597C159.572 284.947 183.792 272.117 183.792 272.117L199.252 283.347Z" fill="#383873"/>
<path opacity="0.15" d="M137.102 335.702C137.102 335.702 167.532 292.392 182.802 285.102" stroke="black" stroke-width="0.8185" stroke-miterlimit="10" stroke-linecap="round"/>
<path d="M233.194 172.15C232.854 172.94 232.454 173.749 232.014 174.589C229.634 179.139 231.394 183.699 228.674 184.859C228.514 184.929 228.334 184.989 228.124 185.029C224.624 185.809 216.554 181.139 216.194 178.809C215.844 176.479 218.684 172.479 216.194 171.999C213.704 171.519 212.364 175.699 212.364 175.699C210.314 175.909 209.594 172.479 206.234 172.479C205.764 172.479 205.294 172.55 204.844 172.66C203.264 173.05 201.884 174.029 200.994 174.779C200.344 175.329 199.964 175.76 199.964 175.76C199.964 175.76 196.974 173.87 197.114 170.15C197.354 164.25 199.524 159.94 204.774 159.07C205.354 152.51 210.754 148.999 217.974 148.779C224.304 148.579 225.254 154.27 225.394 155.69C225.334 154.63 225.044 151.159 223.534 148.779C226.704 148.639 229.494 150.9 228.764 158.27C229.494 156.08 232.044 154.69 234.014 156.3C232.194 156.3 230.444 159.359 230.444 159.359C230.444 159.359 232.584 160.73 234.034 163.26C235.264 165.34 234.804 168.43 233.194 172.15Z" fill="#382424"/>
<path d="M228.679 184.859L228.599 185.939L228.319 189.769C228.319 189.769 222.489 194.749 219.189 189.769C219.169 189.739 219.149 189.699 219.119 189.669C218.099 188.149 217.169 187.619 216.329 187.519C214.499 187.299 213.029 189.079 211.509 187.149C207.159 181.629 205.419 175.219 204.859 172.659C205.309 172.549 205.779 172.479 206.249 172.479C209.609 172.479 210.329 175.909 212.379 175.699C212.379 175.699 213.719 171.519 216.209 171.999C218.699 172.479 215.859 176.479 216.209 178.809C216.369 179.849 218.059 181.359 220.199 182.629C222.699 184.129 225.809 185.309 227.779 185.089C227.899 185.069 228.019 185.059 228.129 185.029C228.329 184.989 228.509 184.929 228.679 184.859Z" fill="#FFAD94"/>
<path opacity="0.25" d="M229.59 191.989C226.96 193.779 222.15 194.079 222.15 194.079L218.21 193.499C218.21 193.499 216.56 191.109 217.33 189.779C217.48 189.519 217.85 189.159 218.37 188.729C219.43 187.859 221.13 186.749 222.89 185.829C224.71 184.889 226.58 184.139 227.93 184.059C231.24 183.869 232.21 190.189 229.59 191.989Z" fill="black"/>
<path d="M228.809 255.826C222.949 256.956 210.549 253.506 204.619 250.836C202.869 250.046 201.669 249.326 201.389 248.826C200.249 246.816 201.399 245.286 204.219 238.916C204.539 238.196 204.869 237.416 205.229 236.576C207.149 232.066 207.149 222.446 207.149 214.156C207.129 207.056 207.089 200.936 208.219 199.846C210.669 197.486 222.879 189.766 222.879 189.766L225.309 202.436C225.309 202.436 226.689 208.866 228.129 217.266C230.799 232.726 233.729 254.876 228.809 255.826Z" fill="#20C3C5"/>
<path d="M232.887 261.468C232.887 262.048 227.047 275.658 222.157 277.608C217.267 279.558 187.767 277.408 187.767 277.408L173.177 286.948L176.227 315.678L178.357 335.698L178.427 336.348C173.967 339.258 162.727 340.048 161.517 337.538C161.507 337.528 161.507 337.518 161.507 337.518C160.337 334.988 142.447 281.118 149.447 271.778C156.447 262.448 201.367 248.828 201.367 248.828C202.537 249.568 203.897 250.248 205.377 250.838C210.367 252.888 216.717 254.168 221.547 254.918C223.407 255.208 225.037 255.418 226.277 255.568C227.847 255.758 228.797 255.828 228.797 255.828C228.797 255.828 232.887 260.878 232.887 261.468Z" fill="#383873"/>
<path d="M180.281 355.113H142.351C142.161 354.443 142.421 353.763 142.991 353.073C144.531 351.223 148.381 349.363 152.101 347.763C155.631 346.243 159.021 344.933 160.151 344.033C162.831 341.913 161.591 337.793 161.521 337.533C161.931 338.373 163.481 338.853 165.521 338.993C169.541 339.283 175.471 338.283 178.431 336.353L178.361 335.703C179.491 337.863 180.021 348.543 180.201 353.083C180.261 354.333 180.281 355.113 180.281 355.113Z" fill="#0C2059"/>
<path d="M165.522 338.991C165.412 340.801 165.142 343.731 164.622 344.511C163.842 345.681 155.482 349.761 154.322 349.371C153.572 349.121 152.652 348.311 152.102 347.761C155.632 346.241 159.022 344.931 160.152 344.031C162.832 341.911 161.592 337.791 161.522 337.531C161.932 338.381 163.482 338.851 165.522 338.991Z" fill="#2E4780"/>
<path d="M180.281 355.11H142.351C142.161 354.44 142.421 353.76 142.991 353.07H180.211C180.261 354.33 180.281 355.11 180.281 355.11Z" fill="#2E4780"/>
<path d="M140.018 341.107C140.018 341.107 137.138 348.707 134.638 352.717C133.648 354.317 132.708 355.357 132.048 355.107C129.718 354.227 106.278 334.297 108.518 332.847C108.848 332.637 109.368 332.487 110.028 332.407C112.068 332.147 115.448 332.427 118.568 332.747C121.248 333.027 123.748 333.327 125.048 333.327C128.358 333.327 128.788 332.357 128.788 332.357C128.858 332.737 129.488 333.467 130.408 334.357C133.308 337.107 139.138 341.327 140.018 341.107Z" fill="#0C2059"/>
<path d="M130.406 334.357C125.436 337.647 120.256 335.667 119.236 334.917C118.486 334.367 118.486 333.347 118.566 332.757C121.246 333.037 123.746 333.337 125.046 333.337C128.356 333.337 128.786 332.367 128.786 332.367C128.856 332.737 129.486 333.467 130.406 334.357Z" fill="#2E4780"/>
<path d="M134.638 352.716C133.648 354.316 132.708 355.356 132.048 355.106C129.718 354.226 106.278 334.296 108.518 332.846C108.848 332.636 109.368 332.486 110.028 332.406L134.638 352.716Z" fill="#2E4780"/>
<path d="M204.627 231.013C202.797 233.563 199.507 237.463 196.807 237.073C196.707 237.053 196.607 237.043 196.467 237.013C191.307 236.103 160.987 228.503 159.557 228.213C158.097 227.923 147.897 227.833 148.477 226.753C149.057 225.683 154.897 222.283 156.447 222.363C158.007 222.443 164.137 224.223 170.257 224.023C176.387 223.833 192.427 224.023 192.427 224.023L193.207 222.683L194.357 220.703C194.037 226.643 201.197 231.493 204.627 231.013Z" fill="#FFAD94"/>
<path opacity="0.15" d="M204.63 253.148C204.63 253.148 203.23 260.588 208.68 263.068" stroke="black" stroke-width="0.8185" stroke-miterlimit="10" stroke-linecap="round"/>
<path opacity="0.15" d="M201.764 259.133C201.764 259.133 165.744 274.493 164.014 279.263C162.284 284.023 173.174 335.693 173.174 335.693" stroke="black" stroke-width="0.8185" stroke-miterlimit="10" stroke-linecap="round"/>
<path opacity="0.15" d="M232.89 261.472C232.89 262.052 227.05 275.662 222.16 277.612C217.27 279.562 187.77 277.412 187.77 277.412L173.18 286.952L176.23 315.682C176.23 315.682 170.07 282.872 170.07 280.722C170.07 278.892 210.81 267.172 221.55 254.922C225.76 255.582 228.8 255.832 228.8 255.832C228.8 255.832 232.89 260.882 232.89 261.472Z" fill="black"/>
<path opacity="0.25" d="M213.681 226.647C211.151 230.227 207.071 234.787 204.211 238.907C204.531 238.187 204.861 237.407 205.221 236.567C207.141 232.057 207.141 222.437 207.141 214.147L215.871 208.367C215.881 208.377 217.771 220.867 213.681 226.647Z" fill="black"/>
<path d="M206.224 229.9C205.844 230.24 205.464 230.59 205.074 230.91C204.934 230.96 204.784 230.99 204.624 231.01C201.194 231.49 194.034 226.65 194.354 220.71C194.374 220.27 194.734 219.38 195.304 218.23C198.234 212.32 207.054 199.17 208.674 199.77C208.674 199.77 214.334 200.65 215.874 208.38C217.314 215.64 212.114 224.44 206.224 229.9Z" fill="#169799"/>
<path opacity="0.25" d="M226.291 255.569C225.051 255.419 223.421 255.209 221.561 254.919C216.731 254.169 210.391 252.879 205.391 250.839C209.791 250.679 219.211 247.789 220.351 226.219C220.871 230.259 221.641 234.439 222.721 238.719C224.181 244.409 225.541 250.399 226.291 255.569Z" fill="black"/>
<path opacity="0.25" d="M223.96 184.431C223.51 184.951 223.16 185.431 222.89 185.831C221.13 186.751 219.43 187.861 218.37 188.731C217.63 187.921 216.95 187.601 216.32 187.531L220.2 182.641C221.38 183.351 222.69 183.981 223.96 184.431Z" fill="black"/>
<path opacity="0.25" d="M204.626 231.011C202.796 233.561 199.506 237.461 196.806 237.071C196.706 237.051 196.606 237.041 196.466 237.011C193.126 232.181 193.006 225.851 193.196 222.691L194.346 220.711C194.036 226.641 201.196 231.491 204.626 231.011Z" fill="black"/>
<path opacity="0.25" d="M233.198 172.153C232.858 172.943 232.458 173.753 232.018 174.593C230.848 176.823 230.688 179.053 230.488 180.893C230.098 180.593 229.698 180.313 229.298 180.073C226.768 181.583 225.068 183.143 223.968 184.423L223.958 184.433C220.388 183.153 216.448 180.423 216.208 178.813C215.858 176.483 218.698 172.483 216.208 172.003C213.718 171.523 212.378 175.703 212.378 175.703C210.328 175.913 209.608 172.483 206.248 172.483C205.778 172.483 205.308 172.553 204.858 172.663C203.278 173.053 201.898 174.033 201.008 174.783C201.008 174.783 204.788 169.473 210.728 170.543C210.728 170.543 209.858 168.893 205.868 169.083C214.228 166.353 219.578 167.433 222.158 170.443C224.248 172.913 229.178 175.963 233.198 172.153Z" fill="black"/>
<path d="M250.203 286.948H221.023C221.023 286.948 244.173 280.138 244.173 234.238C244.173 233.648 244.173 233.068 244.163 232.488C243.923 201.808 237.373 184.898 229.293 180.068C231.823 178.568 235.183 177.138 239.633 176.148C241.573 175.708 243.713 175.358 246.073 175.108C266.053 173.068 282.013 180.898 283.913 189.768C285.803 198.638 274.123 286.948 250.203 286.948Z" fill="#B8E3E2"/>
<path d="M244.17 234.235C244.17 280.135 221.02 286.945 221.02 286.945H173.18L175.17 285.525L187.77 277.405L213.05 275.655C214.41 270.015 218.11 269.825 223.75 269.235C227.03 268.895 227.35 263.355 226.35 256.035C225.62 250.765 224.21 244.565 222.72 238.705C221.64 234.425 220.86 230.245 220.35 226.205C219.74 221.485 219.47 216.975 219.44 212.725C219.37 203.055 220.54 194.785 221.79 188.805C221.9 188.225 222.03 187.665 222.15 187.135C222.15 187.115 222.16 187.095 222.16 187.075C222.27 186.825 222.77 185.785 223.95 184.415L223.96 184.405C225.06 183.115 226.76 181.555 229.29 180.055C229.69 180.295 230.09 180.575 230.48 180.875C238 186.605 243.93 203.325 244.16 232.475C244.17 233.065 244.17 233.645 244.17 234.235Z" fill="#86BFBC"/>
<path d="M234.938 355.105H200.498C199.318 355.105 198.808 353.615 199.738 352.885L208.358 346.145C212.178 343.145 214.418 338.555 214.418 333.705V286.945H221.028V333.705C221.028 338.555 223.258 343.155 227.098 346.145L235.708 352.885C236.628 353.615 236.118 355.105 234.938 355.105Z" fill="#B8E3E2"/>
<g opacity="0.25">
<path d="M261.211 176.867C261.211 176.867 261.461 177.507 261.871 178.797" stroke="black" stroke-width="0.8185" stroke-miterlimit="10" stroke-linecap="round"/>
<path d="M263.033 182.789C264.203 187.179 265.723 194.009 266.933 203.319C270.063 227.469 266.883 261.379 245.883 282.849" stroke="black" stroke-width="0.8185" stroke-miterlimit="10" stroke-linecap="round" stroke-dasharray="4.15 4.15"/>
<path d="M244.391 284.32C243.901 284.79 243.401 285.25 242.891 285.71" stroke="black" stroke-width="0.8185" stroke-miterlimit="10" stroke-linecap="round"/>
</g>
<path opacity="0.15" d="M221.016 286.945V299.715C218.726 300.915 216.396 301.825 214.406 302.495V286.945H221.016Z" fill="black"/>
<path opacity="0.15" d="M230.167 267.104C228.607 271.964 218.898 271.094 217.718 274.694C215.218 282.324 213.828 278.964 204.218 279.944C198.718 280.504 194.727 284.024 192.317 286.954H173.188L175.178 285.534L187.778 277.414L213.058 275.664C214.418 270.024 218.117 269.834 223.757 269.244C227.037 268.904 227.357 263.364 226.357 256.044C225.627 250.774 224.217 244.574 222.727 238.714C221.647 234.434 220.867 230.254 220.357 226.214C219.747 221.494 219.477 216.984 219.447 212.734C223.187 232.224 231.317 263.504 230.167 267.104Z" fill="black"/>
<path opacity="0.15" d="M244.171 234.238C244.171 233.648 244.171 233.068 244.161 232.488C243.921 201.808 237.371 184.898 229.291 180.068C231.821 178.568 235.181 177.138 239.631 176.148C238.301 178.068 236.901 180.958 237.561 184.048C238.731 189.508 251.961 210.508 246.901 244.158C243.251 268.438 244.461 281.068 248.281 286.948H221.031C221.021 286.948 244.171 280.138 244.171 234.238Z" fill="black"/>
<path opacity="0.25" d="M77.2303 209.245C77.2103 210.305 77.1203 211.315 76.9203 212.205H67.5303C64.7703 210.375 60.2703 206.745 57.5703 201.305C60.0803 204.035 64.3703 207.365 68.7403 208.385C72.5503 209.265 75.3903 208.885 77.2303 209.245Z" fill="black"/>
<path d="M99.0304 171.958C97.9804 175.768 93.1804 183.148 88.7904 191.058C83.9904 199.688 79.7004 208.928 81.3804 214.798C81.8004 216.268 81.9904 217.348 81.9904 218.128C82.0104 220.678 80.0704 219.888 78.1104 218.438C76.1104 216.958 74.0904 214.798 74.0904 214.798L74.2404 203.418C74.2404 203.418 67.7904 197.488 73.0904 184.528C73.4304 183.708 73.8104 182.858 74.2404 181.978C81.5304 167.248 92.4704 151.788 82.1104 147.408C96.4104 146.518 101.22 163.998 99.0304 171.958Z" fill="#20C3C5"/>
<g opacity="0.53">
<path d="M82.106 147.398C84.786 147.978 87.116 149.778 88.596 152.068C88.996 152.628 89.276 153.258 89.596 153.858C89.836 154.498 90.136 155.118 90.306 155.788C90.496 156.448 90.686 157.108 90.776 157.788L90.956 158.798L91.016 159.828C90.956 162.598 90.076 165.238 89.166 167.808C88.216 170.368 87.116 172.878 85.976 175.358C83.696 180.318 81.246 185.198 79.076 190.198C78.006 192.698 76.976 195.218 76.216 197.818C75.826 199.108 75.536 200.428 75.366 201.748C75.196 203.068 75.216 204.418 75.636 205.608V205.618C75.706 205.828 75.596 206.068 75.386 206.138C75.176 206.218 74.936 206.098 74.866 205.888C74.866 205.888 74.866 205.888 74.866 205.878C74.396 204.478 74.426 203.018 74.606 201.648C74.806 200.268 75.126 198.918 75.536 197.598C76.346 194.968 77.416 192.438 78.526 189.938C80.766 184.948 83.276 180.098 85.616 175.178C86.786 172.718 87.906 170.228 88.886 167.688C89.826 165.148 90.726 162.528 90.816 159.818L90.766 158.808L90.606 157.808C90.516 157.128 90.346 156.478 90.156 155.818C90.006 155.158 89.706 154.538 89.476 153.898C89.166 153.288 88.896 152.668 88.506 152.108C87.076 149.838 84.776 148.018 82.106 147.398Z" fill="black"/>
</g>
<path d="M92.4635 194.945C88.0935 206.465 92.4635 215.215 85.9035 216.455C82.9035 217.025 81.5735 214.805 81.0235 212.215C80.3735 209.155 80.8035 205.595 80.8035 205.595C80.8035 205.595 81.9136 202.745 84.2536 199.985C86.1536 197.735 88.8635 195.535 92.4635 194.945Z" fill="#169799"/>
<path d="M77.2273 209.241C77.2073 211.921 76.5973 214.201 75.3573 215.391C75.2373 215.511 75.1073 215.621 74.9973 215.711C71.8973 218.221 69.9173 213.621 69.9173 213.621C69.9173 213.621 61.6673 209.551 57.5773 201.291C54.4473 194.951 53.7473 186.121 61.1173 174.781C62.1973 182.861 66.6273 188.361 71.0173 193.581C71.0173 193.591 71.0173 193.591 71.0173 193.591C71.5673 194.241 72.1073 194.881 72.6473 195.531C75.6673 199.181 77.2673 204.771 77.2273 209.241Z" fill="#B8E3E2"/>
<g opacity="0.53">
<path d="M61.1072 174.789C60.3972 178.259 60.2172 181.839 60.5472 185.359C60.9172 188.869 61.8872 192.349 63.7872 195.319C65.6172 198.339 68.1672 200.819 70.4772 203.539C71.6272 204.899 72.7272 206.349 73.5072 207.999C74.2872 209.649 74.6472 211.529 74.4972 213.369C74.4772 213.599 74.2771 213.759 74.0571 213.739C73.8271 213.719 73.6672 213.519 73.6872 213.299V213.289C73.8572 211.589 73.5672 209.859 72.8572 208.289C72.1572 206.709 71.1172 205.289 70.0072 203.919C67.7772 201.199 65.2472 198.629 63.4372 195.519C61.5572 192.459 60.6472 188.899 60.3472 185.369C60.0772 181.829 60.3272 178.249 61.1072 174.789Z" fill="black"/>
</g>
<g opacity="0.25">
<path d="M92.468 194.945C91.218 196.395 90.048 197.915 88.938 199.475C87.828 201.035 86.768 202.635 85.828 204.285C83.938 207.585 82.328 211.125 81.798 214.835V214.845C81.768 215.065 81.558 215.225 81.338 215.195C81.118 215.165 80.958 214.955 80.988 214.735V214.725C81.688 210.845 83.458 207.335 85.478 204.075C86.498 202.435 87.618 200.875 88.778 199.355C89.938 197.835 91.158 196.355 92.468 194.945Z" fill="black"/>
</g>
<path d="M89.8093 215.076L87.0093 232.266C86.8693 232.986 86.2393 233.506 85.4993 233.506H68.0693C67.3293 233.506 66.6993 232.986 66.5593 232.266L64.2793 218.306L63.7593 215.076C63.5893 214.136 64.3093 213.266 65.2693 213.266H88.3093C89.2693 213.266 89.9893 214.136 89.8093 215.076Z" fill="#B8E3E2"/>
<path d="M92.4694 218.575H61.1094L61.9394 213.895C62.1194 212.915 62.9694 212.195 63.9694 212.195H89.6194C90.6094 212.195 91.4694 212.915 91.6394 213.895L92.4694 218.575Z" fill="#86BFBC"/>
<path opacity="0.25" d="M80.8 205.601C80.8 205.601 80.37 209.141 81.01 212.201H76.91C77.11 211.311 77.2 210.301 77.22 209.241C77.26 204.781 75.66 199.181 72.63 195.541C72.09 194.891 71.55 194.261 71 193.601C71 193.601 71 193.601 71 193.591C71.07 191.081 71.64 188.071 73.08 184.531C73.32 188.661 74.33 195.851 78.46 196.611C81.59 197.181 85.68 194.071 88.79 191.061C87.14 194.011 85.57 197.041 84.26 199.991C81.92 202.751 80.8 205.601 80.8 205.601Z" fill="black"/>
<path opacity="0.25" d="M78.4781 233.506H68.0681C67.3281 233.506 66.6981 232.986 66.5581 232.266L64.3281 218.586H73.3281C73.1081 220.506 72.8381 224.076 73.5181 226.856C74.0381 229.046 75.9681 231.876 78.4781 233.506Z" fill="black"/>
<path d="M157.35 91.9313H112.74C110.54 91.9313 108.75 90.1413 108.75 87.9413V54.7713C108.75 52.5713 110.54 50.7812 112.74 50.7812H157.35C159.55 50.7812 161.34 52.5713 161.34 54.7713V87.9413C161.34 90.1513 159.55 91.9313 157.35 91.9313Z" fill="#383873"/>
<path d="M120.997 65.3431V69.7731C120.997 70.1231 121.287 70.4131 121.637 70.4131H124.087C124.437 70.4131 124.727 70.1231 124.727 69.7731V65.3431C124.727 64.9931 125.017 64.7031 125.367 64.7031H125.607C125.957 64.7031 126.247 64.9931 126.247 65.3431V77.3831C126.247 77.7331 125.957 78.0231 125.607 78.0231H125.367C125.017 78.0231 124.727 77.7331 124.727 77.3831V72.4431C124.727 72.0931 124.437 71.8031 124.087 71.8031H121.637C121.287 71.8031 120.997 72.0931 120.997 72.4431V77.3831C120.997 77.7331 120.707 78.0231 120.357 78.0231H120.117C119.767 78.0231 119.477 77.7331 119.477 77.3831V65.3431C119.477 64.9931 119.767 64.7031 120.117 64.7031H120.357C120.707 64.7031 120.997 64.9931 120.997 65.3431Z" fill="white"/>
<path d="M129.548 66.0631H128.398C128.048 66.0631 127.758 65.7731 127.758 65.4231V65.3431C127.758 64.9931 128.048 64.7031 128.398 64.7031H133.498C133.848 64.7031 134.138 64.9931 134.138 65.3431V65.4231C134.138 65.7731 133.848 66.0631 133.498 66.0631H132.348C131.998 66.0631 131.708 66.3531 131.708 66.7031V77.3831C131.708 77.7331 131.418 78.0231 131.068 78.0231H130.828C130.478 78.0231 130.188 77.7331 130.188 77.3831V66.7031C130.188 66.3531 129.898 66.0631 129.548 66.0631Z" fill="white"/>
<path d="M143.609 72.2909C143.509 70.5309 143.409 68.5709 143.469 67.0709H143.389C143.089 68.5509 142.739 70.1309 142.319 71.7009L140.679 77.9509H139.709L138.149 71.9609C137.709 70.2609 137.319 68.6209 137.059 67.0809H136.999C136.999 68.6409 136.919 70.5009 136.839 72.4009L136.609 77.4209C136.589 77.7609 136.309 78.0309 135.969 78.0309H135.899C135.529 78.0309 135.239 77.7209 135.259 77.3509L135.969 65.3109C135.989 64.9709 136.269 64.7109 136.609 64.7109H137.149C137.439 64.7109 137.699 64.9109 137.769 65.1909L139.209 70.8009C139.659 72.5609 139.999 73.8609 140.279 75.3909H140.339C140.599 73.8709 140.889 72.6009 141.329 70.8009L142.709 65.2009C142.779 64.9109 143.039 64.7109 143.329 64.7109H143.919C144.259 64.7109 144.539 64.9809 144.559 65.3209L145.259 77.3609C145.279 77.7309 144.989 78.0409 144.619 78.0409H144.489C144.149 78.0409 143.859 77.7709 143.849 77.4309L143.609 72.2909Z" fill="white"/>
<path d="M148.015 64.7031H148.255C148.605 64.7031 148.895 64.9931 148.895 65.3431V76.0931C148.895 76.4431 149.185 76.7331 149.535 76.7331H152.005C152.355 76.7331 152.645 77.0231 152.645 77.3731C152.645 77.7231 152.355 78.0131 152.005 78.0131H148.015C147.665 78.0131 147.375 77.7231 147.375 77.3731V65.3331C147.375 64.9931 147.665 64.7031 148.015 64.7031Z" fill="white"/>
<path d="M177.69 54.3125C179.36 54.3125 179.75 53.1925 179.75 52.1925C179.75 51.3125 179.66 50.4625 179.57 49.6125C179.48 48.7025 179.39 47.8825 179.39 46.9425C179.39 44.2125 181.06 43.0625 183.21 43.0625H183.57V44.6425H183.11C181.84 44.6425 181.32 45.5525 181.32 46.9225C181.32 47.7425 181.41 48.5025 181.5 49.2325C181.56 50.0225 181.65 50.7525 181.65 51.4825C181.68 53.8525 180.86 54.6725 179.56 55.0325V55.0925C180.86 55.4825 181.68 56.3025 181.65 58.7025C181.65 59.4625 181.56 60.2225 181.5 60.9825C181.41 61.7425 181.32 62.5025 181.32 63.3225C181.32 64.6925 181.78 65.6325 183.14 65.6325H183.56V67.2125H183.17C181.17 67.2125 179.38 66.2125 179.38 63.3325C179.38 62.4225 179.47 61.5125 179.56 60.6325C179.65 59.7525 179.74 58.8725 179.74 58.0225C179.74 57.0525 179.35 55.8725 177.68 55.8725V54.3125H177.69Z" fill="#383873"/>
<path d="M208.622 55.8334C206.952 55.8334 206.562 57.0134 206.562 57.9834C206.562 58.8334 206.652 59.7134 206.742 60.5934C206.832 61.4734 206.922 62.3834 206.922 63.2934C206.922 66.1734 205.132 67.1734 203.132 67.1734H202.742V65.5934H203.172C204.542 65.4434 204.992 64.6534 204.992 63.2834C204.992 62.4634 204.902 61.7034 204.842 60.9434C204.752 60.1834 204.662 59.4234 204.662 58.6634C204.632 56.2634 205.452 55.4434 206.752 55.0534V54.9934C205.442 54.6334 204.632 53.8134 204.662 51.4434C204.662 50.7134 204.752 49.9834 204.842 49.1934C204.902 48.4634 204.992 47.7034 204.992 46.8834C204.992 45.5134 204.472 44.7634 203.202 44.6034H202.742V43.0234H203.102C205.252 43.0234 206.922 44.1734 206.922 46.9034C206.922 47.8434 206.832 48.6634 206.742 49.5734C206.652 50.4234 206.562 51.2734 206.562 52.1534C206.562 53.1534 206.952 54.2734 208.622 54.2734V55.8334Z" fill="#383873"/>
<path d="M198.212 58.0312V52.2013L193.152 49.2812L188.102 52.2013V58.0312L193.152 60.9513L198.212 58.0312Z" fill="#FF6224"/>
<path d="M236.251 87.1248C231.501 84.7548 225.781 85.6948 222.031 89.4448C217.391 94.0848 217.241 101.515 221.541 106.355L219.691 106.135C219.471 106.105 219.261 106.265 219.241 106.495C219.211 106.715 219.371 106.925 219.601 106.945L222.421 107.285C222.531 107.295 222.641 107.265 222.721 107.205C222.801 107.145 222.861 107.045 222.871 106.935L223.191 104.205C223.221 103.985 223.061 103.775 222.831 103.755C222.611 103.725 222.401 103.885 222.381 104.115L222.171 105.855C218.131 101.335 218.271 94.3848 222.611 90.0448C226.121 86.5348 231.451 85.6648 235.891 87.8748C236.091 87.9748 236.341 87.8948 236.441 87.6948C236.531 87.4748 236.451 87.2248 236.251 87.1248Z" fill="#FF6224"/>
<path d="M225.625 109.771C230.375 112.141 236.095 111.201 239.845 107.451C244.485 102.811 244.635 95.3813 240.335 90.5413L242.185 90.7613C242.405 90.7913 242.615 90.6313 242.635 90.4013C242.665 90.1813 242.505 89.9713 242.275 89.9513L239.455 89.6113C239.345 89.6013 239.235 89.6313 239.155 89.6913C239.075 89.7513 239.015 89.8513 239.005 89.9613L238.685 92.6913C238.655 92.9113 238.815 93.1213 239.045 93.1413C239.265 93.1713 239.475 93.0113 239.495 92.7813L239.705 91.0413C243.745 95.5613 243.605 102.511 239.265 106.851C235.755 110.361 230.425 111.231 225.985 109.021C225.785 108.921 225.535 109.001 225.435 109.201C225.345 109.421 225.425 109.671 225.625 109.771Z" fill="#FF6224"/>
<path d="M335.08 132.739H261.01C259.66 132.739 258.57 131.649 258.57 130.299C258.57 128.949 259.66 127.859 261.01 127.859H335.08C336.43 127.859 337.52 128.949 337.52 130.299C337.53 131.649 336.43 132.739 335.08 132.739Z" fill="#FF6224"/>
<path d="M308.63 143.372H261.01C259.66 143.372 258.57 142.282 258.57 140.932C258.57 139.582 259.66 138.492 261.01 138.492H308.63C309.98 138.492 311.07 139.582 311.07 140.932C311.08 142.282 309.98 143.372 308.63 143.372Z" fill="#20C3C5"/>
<path d="M308.63 154.778H261.01C259.66 154.778 258.57 153.688 258.57 152.338C258.57 150.988 259.66 149.898 261.01 149.898H308.63C309.98 149.898 311.07 150.988 311.07 152.338C311.08 153.688 309.98 154.778 308.63 154.778Z" fill="#20C3C5"/>
<path d="M72.4434 92.1222H33.9634C32.6134 92.1222 31.5234 91.0322 31.5234 89.6822C31.5234 88.3322 32.6134 87.2422 33.9634 87.2422H72.4434C73.7934 87.2422 74.8834 88.3322 74.8834 89.6822C74.8834 91.0322 73.7934 92.1222 72.4434 92.1222Z" fill="#20C3C5"/>
<path d="M57.9134 102.755H33.9634C32.6134 102.755 31.5234 101.665 31.5234 100.315C31.5234 98.965 32.6134 97.875 33.9634 97.875H57.9134C59.2634 97.875 60.3534 98.965 60.3534 100.315C60.3534 101.665 59.2634 102.755 57.9134 102.755Z" fill="#FF6224"/>
<path d="M57.9134 114.161H33.9634C32.6134 114.161 31.5234 113.071 31.5234 111.721C31.5234 110.371 32.6134 109.281 33.9634 109.281H57.9134C59.2634 109.281 60.3534 110.371 60.3534 111.721C60.3534 113.071 59.2634 114.161 57.9134 114.161Z" fill="#FF6224"/>
<path d="M301.71 269.34C299.31 276.3 296.45 282.37 293.45 287.85C283.1 306.76 271.07 318.8 270.62 336.43C270.62 336.43 266.89 319.81 269.88 300.88C271.56 290.25 275.36 278.89 283.12 269.33C304.74 242.75 301.54 218.57 301.54 218.57C301.54 218.57 312.38 238.41 301.71 269.34Z" fill="#169799"/>
<g opacity="0.25">
<path d="M276.234 315.75C275.914 313.54 276.004 311.4 276.204 309.24C276.414 307.09 276.804 304.96 277.354 302.88C278.424 298.71 280.014 294.69 281.954 290.86C282.884 288.92 283.994 287.09 285.084 285.24L288.564 279.87C290.784 276.26 292.654 272.42 294.224 268.47C295.814 264.52 297.144 260.47 298.274 256.36C299.404 252.25 300.334 248.09 301.064 243.89C301.794 239.69 302.334 235.46 302.594 231.2C302.724 229.07 302.784 226.94 302.684 224.81C302.634 223.75 302.564 222.68 302.394 221.63C302.214 220.58 302.024 219.52 301.524 218.57C302.034 219.51 302.254 220.58 302.444 221.63C302.634 222.68 302.724 223.75 302.794 224.81C302.924 226.94 302.894 229.08 302.804 231.22C302.614 235.49 302.114 239.74 301.424 243.96C300.734 248.18 299.854 252.37 298.764 256.5C297.684 260.64 296.384 264.72 294.824 268.71C293.284 272.7 291.434 276.59 289.224 280.28L285.774 285.67C284.704 287.5 283.604 289.32 282.694 291.24C280.794 295.03 279.234 299 278.194 303.1C277.664 305.15 277.284 307.23 277.054 309.33C276.834 311.41 276.744 313.57 277.024 315.6L277.034 315.64C277.064 315.86 276.904 316.07 276.684 316.1C276.474 316.13 276.264 315.98 276.234 315.75Z" fill="black"/>
</g>
<path opacity="0.25" d="M293.45 287.859C283.1 306.769 271.07 318.809 270.62 336.439C270.62 336.439 266.89 319.819 269.88 300.889C276.6 298.149 286.04 293.689 293.45 287.859Z" fill="black"/>
<path d="M276.628 355.117C276.628 355.117 269.068 342.187 286.958 326.237C304.848 310.287 318.858 289.187 316.128 272.117C299.008 291.997 253.498 320.197 266.338 355.107L276.628 355.117Z" fill="#20C3C5"/>
<g opacity="0.25">
<path d="M316.13 272.117C314.42 275.887 312.13 279.357 309.67 282.677C307.18 285.977 304.44 289.087 301.52 292.027C298.63 294.987 295.44 297.647 292.28 300.297C289.14 302.957 286.29 305.967 283.75 309.207C278.67 315.687 274.7 323.067 272.31 330.937C271.14 334.877 270.34 338.937 270.23 343.037C270.11 347.117 270.63 351.267 272.27 354.987C272.36 355.197 272.27 355.437 272.06 355.527C271.85 355.617 271.61 355.527 271.52 355.317C269.86 351.427 269.36 347.167 269.52 343.017C269.67 338.847 270.52 334.737 271.73 330.767C274.21 322.837 278.27 315.437 283.44 308.957C286.02 305.717 288.91 302.717 292.1 300.067C295.29 297.437 298.49 294.827 301.4 291.887C304.33 288.987 307.09 285.897 309.61 282.627C312.08 279.327 314.39 275.867 316.13 272.117Z" fill="black"/>
</g>
<path d="M19.8291 261.475C19.8291 261.475 10.4891 252.965 5.53906 231.695C34.1291 255.935 41.1291 277.525 41.1291 277.525L19.8291 261.475Z" fill="#169799"/>
<g opacity="0.25">
<path d="M5.53125 231.695C9.51125 237.385 13.4013 243.135 17.1813 248.965C19.0713 251.875 20.9212 254.815 22.7212 257.795C24.5112 260.775 26.2613 263.785 27.7113 266.985C27.8013 267.195 27.7112 267.435 27.5112 267.525C27.3012 267.615 27.0612 267.525 26.9712 267.325C26.9712 267.325 26.9712 267.325 26.9712 267.315L26.9613 267.305C25.6013 264.155 23.9112 261.115 22.1912 258.105C20.4612 255.105 18.6612 252.135 16.8312 249.185C13.1712 243.285 9.40125 237.465 5.53125 231.695Z" fill="black"/>
</g>
<path d="M40.5411 273.436C35.4011 268.806 27.7911 264.216 20.5411 259.266C10.9111 252.696 1.93109 245.476 0.27109 236.656C-3.50891 268.466 33.4911 282.796 33.4911 282.796L33.5611 282.906L47.0011 302.506C47.0111 302.506 52.5011 284.226 40.5411 273.436Z" fill="#20C3C5"/>
<g opacity="0.25">
<path d="M0.273512 236.656C0.293512 240.206 1.32351 243.676 2.81351 246.856C4.37351 250.026 6.48351 252.906 8.99351 255.376C11.5035 257.856 14.4035 259.896 17.3735 261.816C20.3335 263.746 23.3435 265.606 26.2735 267.606C32.1135 271.576 37.7035 276.196 41.6135 282.206C45.5835 288.166 47.4135 295.386 47.4135 302.506C47.4135 302.736 47.2335 302.916 47.0035 302.916C46.7735 302.916 46.5935 302.736 46.5935 302.506V302.496C46.6535 295.506 44.9335 288.426 41.0935 282.526C37.3035 276.586 31.8135 271.936 26.0335 267.936C23.1335 265.916 20.1435 264.026 17.2035 262.066C14.2535 260.116 11.3535 258.036 8.85351 255.516C6.34351 253.006 4.25351 250.086 2.72351 246.896C1.26351 243.696 0.263512 240.206 0.273512 236.656Z" fill="black"/>
</g>
<path d="M303.983 369.309H55.3734C51.4534 369.309 48.2734 366.129 48.2734 362.209C48.2734 358.289 51.4534 355.109 55.3734 355.109H303.983C307.903 355.109 311.083 358.289 311.083 362.209C311.083 366.129 307.903 369.309 303.983 369.309Z" fill="#EAF9F8"/>
</svg>
